<?xml version="1.0" encoding="UTF-8"?>
<svg id="Layer_1" xmlns="http://www.w3.org/2000/svg" version="1.1" viewBox="0 0 64 64">
  <!-- Generator: Adobe Illustrator 30.4.0, SVG Export Plug-In . SVG Version: 2.1.3 Build 135)  -->
  <defs>
    <style>
      .st0 {
        fill: #fff;
      }

      .st1 {
        fill: #284181;
      }
    </style>
  </defs>
  <rect class="st0" width="64" height="64"/>
  <path class="st1" d="M49.31,44.18c-.12,2.49-2.24,4.5-4.72,4.44-2.67-.02-4.69-2.12-4.66-4.84.02-2.49,2.19-4.58,4.77-4.54,2.68.04,4.75,2.29,4.61,4.94M43.38,32.1c.06,2.69-2.27,4.8-4.88,4.71-2.47-.08-4.49-2.18-4.48-4.77.02-2.59,2.13-4.64,4.75-4.63,2.55.02,4.62,2.13,4.61,4.69M36.8,20.08c0,2.59-2.08,4.67-4.66,4.67s-4.73-2.08-4.73-4.74c0-2.51,2.14-4.64,4.67-4.64,2.63,0,4.71,2.08,4.71,4.71M26.07,27.41c2.63,0,4.71,2.08,4.71,4.71s-2.08,4.67-4.66,4.67-4.73-2.08-4.73-4.74c0-2.51,2.14-4.64,4.67-4.64M19.38,39.24c2.84,0,4.78,2.4,4.69,4.68.09,2.5-2.06,4.72-4.62,4.7-2.64-.02-4.77-2.07-4.77-4.67s2.12-4.73,4.69-4.72M27.34,43.95c-.11-2.3,1.8-4.7,4.66-4.71,2.52,0,4.69,1.9,4.7,4.68.01,2.91-2.37,4.71-4.73,4.71-2.64,0-4.75-2.31-4.64-4.68M64,0H0v64h64V0Z"/>
</svg>