<?xml version="1.0" encoding="UTF-8"?>
<svg id="Calque_1" xmlns="http://www.w3.org/2000/svg" version="1.1" viewBox="0 0 368.83 73.1">
  <!-- Generator: Adobe Illustrator 30.4.0, SVG Export Plug-In . SVG Version: 2.1.3 Build 187)  -->
  <defs>
    <style>
      .st0 {
        fill: #fff;
      }
    </style>
  </defs>
  <path class="st0" d="M345.05,45.82c-.09,1.89-1.7,3.41-3.58,3.36-2.02-.02-3.55-1.61-3.53-3.67.02-1.89,1.66-3.47,3.61-3.44,2.03.03,3.6,1.73,3.5,3.74M340.56,36.66c.05,2.04-1.72,3.63-3.7,3.57-1.87-.06-3.4-1.65-3.39-3.61.01-1.96,1.61-3.52,3.6-3.5,1.93.01,3.5,1.61,3.49,3.55M335.57,27.56c0,1.96-1.57,3.54-3.53,3.54s-3.58-1.57-3.58-3.59c0-1.9,1.62-3.51,3.54-3.51,1.99,0,3.57,1.58,3.57,3.57M327.44,33.12c1.99,0,3.57,1.58,3.57,3.57s-1.57,3.54-3.53,3.54-3.58-1.57-3.58-3.59c0-1.9,1.62-3.51,3.54-3.51M322.37,42.07c2.15,0,3.63,1.82,3.55,3.55.07,1.89-1.56,3.57-3.5,3.56-2-.01-3.61-1.57-3.61-3.54s1.61-3.58,3.55-3.58M328.4,45.64c-.08-1.74,1.36-3.56,3.53-3.56,1.91,0,3.55,1.44,3.56,3.55,0,2.2-1.8,3.57-3.58,3.57-2,0-3.6-1.75-3.51-3.55M356.18,12.35h-48.49v48.49h48.49V12.35Z"/>
  <g>
    <path class="st0" d="M39.01,45.45c2.32-2.15,4.61-4.27,6.94-6.42,1.63,1.71,3.19,3.35,4.77,5,3.68-4.44,3.28-11.75-1.32-16.62-4.92-5.21-12.98-5.77-18.58-1.27-5.59,4.49-6.75,12.78-2.62,18.74,3.09,4.48,11.12,7.06,14.93,4.85-1.34-1.39-2.68-2.8-4.11-4.29M12.98,32.09c1.96-10.72,10.24-18.94,20.97-20.72,6.89-1.14,13.54-.42,19.7,3.05,6.8,3.83,10.81,9.71,12.2,17.36,1.42,7.83-.28,14.94-5.15,21.26-.19.24-.36.5-.54.75-.04.06-.04.14-.04.14,1.21,1.29,2.38,2.54,3.6,3.84-1.25,1.11-2.57,2.28-3.87,3.47-1.04.95-2.05,1.92-3.08,2.88h-.15c-1.3-1.57-2.6-3.14-3.76-4.55-1.98.79-3.72,1.66-5.55,2.17-4.31,1.2-8.69,1.01-13.07.37-12.32-1.8-19.14-11.06-21.11-19.97-.85-3.42-.47-8.32-.16-10.05Z"/>
    <path class="st0" d="M180.16,52.01c4.08.08,7.54-3.27,7.63-7.4.08-4.08-3.25-7.56-7.51-7.6-4.24-.04-7.52,3.17-7.65,7.28-.13,4.24,3.2,7.62,7.52,7.71M187.46,31.09v-.82c0-5.68.01-11.36-.02-17.05,0-.73.17-.97.93-.96,3.26.04,6.53.02,9.8.02h.85v48.55c-.24.02-.47.05-.69.05-3.34,0-6.68-.02-10.03.02-.69,0-.9-.2-.86-.87.05-.81.01-1.62.01-2.58-.24.17-.37.23-.46.33-2.39,2.88-5.59,4.05-9.18,4.14-8.7.22-15.67-5.58-17.03-14.24-1.07-6.81.71-12.77,6.24-17.14,5.01-3.96,10.68-4.49,16.56-2.1,1.13.46,2.05,1.42,3.06,2.16.22.16.41.37.61.56.07-.02.13-.05.2-.07"/>
    <path class="st0" d="M261.1,44.36c0-4.15-3.4-7.57-7.53-7.57-4.12,0-7.63,3.41-7.6,7.53.04,4.32,3.26,7.56,7.56,7.63,4.17.07,7.57-3.39,7.57-7.59M260.79,30.79v-2.87h11.59v32.9h-11.58v-3.39c-.85.77-1.57,1.52-2.4,2.14-2.38,1.78-5.11,2.44-8.04,2.43-8.17-.03-14.84-5.94-16.21-14.17-1.16-6.98.6-13.15,6.35-17.62,4.96-3.86,10.55-4.46,16.35-2.03,1.4.59,2.59,1.7,3.94,2.62"/>
    <path class="st0" d="M127.36,44.36c.01,4.19,3.38,7.59,7.52,7.6,4.19.02,7.6-3.4,7.6-7.6,0-4.16-3.4-7.57-7.55-7.57-4.13,0-7.58,3.44-7.57,7.57M142.18,31.01v-3.11h11.55v32.9h-11.54v-3.25c-.06-.02-.12-.04-.18-.07-.32.34-.63.69-.97,1.02-2.63,2.54-5.84,3.5-9.42,3.47-8.63-.06-15.27-6.84-16.22-15.13-.64-5.59.61-10.65,4.48-14.84,3.71-4.03,8.4-5.64,13.84-5.09,3.12.31,5.86,1.45,8.04,3.78.07.07.16.12.43.31"/>
    <path class="st0" d="M73.34,28.1h1.01c3.21,0,6.43.02,9.64-.01.67,0,.88.15.88.85-.03,5.84-.02,11.67,0,17.51,0,.82.08,1.65.26,2.44.49,2.05,1.79,3.36,3.88,3.68,1.15.18,2.37.22,3.51.05,2.58-.39,4.06-2.13,4.24-4.73.04-.54.06-1.08.06-1.62,0-5.81,0-11.62,0-17.43,0-.43.01-.75.59-.75,3.55.02,7.1,0,10.64.01.1,0,.2.03.34.05.03.15.07.3.07.44,0,6.94.06,13.89-.04,20.83-.09,6.01-3.19,9.98-8.95,11.74-4.04,1.23-8.18,1.38-12.36.97-2.79-.28-5.48-.89-7.93-2.28-3.93-2.24-5.82-5.72-5.87-10.16-.08-7.02-.02-14.04-.02-21.06,0-.15.03-.3.05-.53"/>
    <path class="st0" d="M218.7,33.18c3.22-4.72,7.79-5.88,13.11-5.43v10.94c-.43-.17-.82-.33-1.21-.48-2.3-.85-4.64-.87-6.95-.1-2.89.96-4.85,3.75-4.89,6.99-.07,4.96-.04,9.92-.06,14.88,0,.27,0,.55,0,.86h-11.56V28.18c.17-.02.36-.07.56-.07,3.37,0,6.73.02,10.1,0,.72,0,.93.24.91.93-.04,1.38-.01,2.76-.01,4.15"/>
    <rect class="st0" x="280.44" y="12.35" width="11.58" height="48.49"/>
  </g>
</svg>