<?xml version="1.0" encoding="UTF-8"?>
<svg id="Calque_1" xmlns="http://www.w3.org/2000/svg" version="1.1" viewBox="0 0 399.19 98.44">
  <!-- Generator: Adobe Illustrator 30.4.0, SVG Export Plug-In . SVG Version: 2.1.3 Build 135)  -->
  <defs>
    <style>
      .st0 {
        fill: #fff;
      }
    </style>
  </defs>
  <path class="st0" d="M366.66,63.62c-.14,2.81-2.53,5.08-5.33,5.01-3.01-.02-5.29-2.39-5.26-5.47.03-2.81,2.48-5.17,5.38-5.12,3.02.05,5.36,2.58,5.21,5.58M359.97,49.98c.07,3.04-2.56,5.42-5.51,5.32-2.79-.09-5.07-2.46-5.05-5.39.02-2.92,2.4-5.24,5.36-5.22,2.87.02,5.22,2.4,5.2,5.29M352.53,36.42c0,2.92-2.34,5.27-5.26,5.27s-5.34-2.35-5.34-5.35c0-2.84,2.42-5.24,5.28-5.24,2.97,0,5.32,2.35,5.32,5.32M340.42,44.69c2.97,0,5.32,2.35,5.32,5.32s-2.34,5.27-5.26,5.27-5.34-2.35-5.34-5.35c0-2.84,2.42-5.24,5.28-5.24M332.86,58.04c3.21,0,5.4,2.71,5.3,5.29.1,2.82-2.33,5.33-5.21,5.31-2.98-.02-5.38-2.34-5.38-5.27s2.39-5.34,5.3-5.33M341.85,63.36c-.12-2.6,2.03-5.3,5.26-5.31,2.85-.01,5.3,2.15,5.31,5.29.01,3.28-2.68,5.32-5.33,5.31-2.98,0-5.37-2.61-5.24-5.29M383.24,13.74h-72.26v72.26h72.26V13.74Z"/>
  <g>
    <path class="st0" d="M25.54,74.64v1.21h-4.94v3.83h4.01v1.21h-4.01v5.12h-1.48v-11.36h6.42Z"/>
    <path class="st0" d="M27.39,79.1c.37-.69.88-1.22,1.52-1.61.65-.38,1.37-.57,2.16-.57s1.46.17,2.04.5c.58.34,1,.76,1.29,1.27v-1.63h1.5v8.93h-1.5v-1.66c-.29.52-.73.95-1.31,1.3-.58.34-1.26.51-2.03.51s-1.51-.2-2.15-.59c-.64-.39-1.15-.94-1.52-1.65-.37-.71-.55-1.51-.55-2.41s.18-1.71.55-2.4ZM33.99,79.76c-.27-.5-.64-.88-1.1-1.15-.46-.27-.97-.4-1.52-.4s-1.06.13-1.52.39c-.46.26-.82.64-1.09,1.14-.27.5-.41,1.09-.41,1.76s.14,1.28.41,1.79c.27.5.63.89,1.09,1.16.46.27.96.4,1.52.4s1.06-.13,1.52-.4.83-.65,1.1-1.16c.27-.51.41-1.09.41-1.77s-.14-1.26-.41-1.76Z"/>
    <path class="st0" d="M38.45,79.1c.37-.69.88-1.22,1.54-1.61.66-.38,1.41-.57,2.26-.57,1.1,0,2,.27,2.71.8.71.53,1.18,1.27,1.41,2.22h-1.6c-.15-.54-.45-.97-.89-1.29-.44-.31-.99-.47-1.64-.47-.85,0-1.53.29-2.05.87-.52.58-.78,1.41-.78,2.47s.26,1.91.78,2.49c.52.59,1.21.88,2.05.88.65,0,1.19-.15,1.63-.46.43-.3.73-.74.9-1.3h1.6c-.24.91-.72,1.64-1.43,2.19-.72.55-1.61.82-2.69.82-.85,0-1.6-.19-2.26-.57-.66-.38-1.17-.92-1.54-1.61-.37-.7-.55-1.51-.55-2.45s.18-1.73.55-2.42Z"/>
    <path class="st0" d="M48.45,75.32c-.2-.2-.29-.43-.29-.72s.1-.52.29-.72c.2-.2.43-.29.72-.29s.5.1.69.29c.19.2.29.44.29.72s-.1.52-.29.72c-.19.2-.42.29-.69.29s-.52-.1-.72-.29ZM49.88,77.07v8.93h-1.48v-8.93h1.48Z"/>
    <path class="st0" d="M53.94,73.94v12.06h-1.48v-12.06h1.48Z"/>
    <path class="st0" d="M56.56,75.32c-.2-.2-.29-.43-.29-.72s.1-.52.29-.72c.2-.2.43-.29.72-.29s.5.1.69.29c.19.2.29.44.29.72s-.1.52-.29.72c-.19.2-.42.29-.69.29s-.52-.1-.72-.29ZM58,77.07v8.93h-1.48v-8.93h1.48Z"/>
    <path class="st0" d="M62.38,78.29v5.26c0,.44.09.74.28.92.19.18.51.27.96.27h1.09v1.25h-1.34c-.83,0-1.45-.19-1.86-.57-.41-.38-.62-1-.62-1.88v-5.26h-1.16v-1.22h1.16v-2.25h1.48v2.25h2.33v1.22h-2.33Z"/>
    <path class="st0" d="M66.55,79.1c.37-.69.88-1.22,1.52-1.61.65-.38,1.37-.57,2.16-.57s1.46.17,2.04.5c.58.34,1,.76,1.29,1.27v-1.63h1.5v8.93h-1.5v-1.66c-.29.52-.73.95-1.31,1.3-.58.34-1.26.51-2.03.51s-1.51-.2-2.15-.59c-.64-.39-1.15-.94-1.52-1.65-.37-.71-.55-1.51-.55-2.41s.18-1.71.55-2.4ZM73.16,79.76c-.27-.5-.64-.88-1.1-1.15-.46-.27-.97-.4-1.52-.4s-1.06.13-1.52.39c-.46.26-.82.64-1.09,1.14-.27.5-.41,1.09-.41,1.76s.14,1.28.41,1.79c.27.5.63.89,1.09,1.16.46.27.96.4,1.52.4s1.06-.13,1.52-.4.83-.65,1.1-1.16c.27-.51.41-1.09.41-1.77s-.14-1.26-.41-1.76Z"/>
    <path class="st0" d="M79.43,78.29v5.26c0,.44.09.74.28.92.18.18.5.27.96.27h1.09v1.25h-1.34c-.83,0-1.45-.19-1.86-.57-.41-.38-.62-1-.62-1.88v-5.26h-1.16v-1.22h1.16v-2.25h1.48v2.25h2.33v1.22h-2.33Z"/>
    <path class="st0" d="M91.71,82.09h-7.14c.05.88.36,1.57.91,2.06.55.49,1.21.74,2,.74.64,0,1.18-.15,1.61-.45.43-.3.73-.7.91-1.2h1.6c-.24.86-.72,1.56-1.43,2.09-.72.54-1.61.81-2.67.81-.85,0-1.61-.19-2.27-.57-.67-.38-1.19-.92-1.57-1.62-.38-.7-.57-1.51-.57-2.44s.18-1.73.55-2.43c.37-.7.89-1.23,1.56-1.61.67-.38,1.44-.56,2.31-.56s1.6.18,2.25.55c.65.37,1.15.88,1.51,1.52.35.65.53,1.38.53,2.19,0,.28-.02.58-.05.9ZM89.85,79.42c-.25-.41-.59-.72-1.02-.93-.43-.21-.9-.32-1.43-.32-.75,0-1.39.24-1.92.72-.53.48-.83,1.14-.9,1.99h5.64c0-.56-.12-1.05-.38-1.46Z"/>
    <path class="st0" d="M101.68,77.07v8.93h-1.48v-1.32c-.28.46-.68.81-1.18,1.07-.51.26-1.06.38-1.67.38-.7,0-1.32-.14-1.87-.43-.55-.29-.99-.72-1.31-1.3-.32-.58-.48-1.28-.48-2.1v-5.23h1.47v5.04c0,.88.22,1.56.67,2.03s1.05.71,1.83.71,1.42-.24,1.88-.73.68-1.2.68-2.14v-4.91h1.48Z"/>
    <path class="st0" d="M106.84,77.33c.48-.28,1.07-.42,1.77-.42v1.53h-.39c-1.66,0-2.49.9-2.49,2.71v4.86h-1.48v-8.93h1.48v1.45c.26-.51.63-.91,1.12-1.19Z"/>
    <path class="st0" d="M114.77,79.1c.37-.69.88-1.22,1.52-1.61.65-.38,1.37-.57,2.18-.57.7,0,1.34.16,1.94.48.6.32,1.05.74,1.37,1.26v-4.73h1.5v12.06h-1.5v-1.68c-.29.53-.73.97-1.3,1.31-.58.34-1.25.51-2.02.51s-1.51-.2-2.16-.59c-.65-.39-1.15-.94-1.52-1.65-.37-.71-.55-1.51-.55-2.41s.18-1.71.55-2.4ZM121.37,79.76c-.27-.5-.64-.88-1.1-1.15-.46-.27-.97-.4-1.52-.4s-1.06.13-1.52.39c-.46.26-.82.64-1.09,1.14-.27.5-.41,1.09-.41,1.76s.14,1.28.41,1.79c.27.5.63.89,1.09,1.16.46.27.96.4,1.52.4s1.06-.13,1.52-.4.83-.65,1.1-1.16c.27-.51.41-1.09.41-1.77s-.14-1.26-.41-1.76Z"/>
    <path class="st0" d="M133.94,82.09h-7.14c.05.88.36,1.57.9,2.06.55.49,1.21.74,2,.74.64,0,1.18-.15,1.61-.45.43-.3.73-.7.9-1.2h1.6c-.24.86-.72,1.56-1.43,2.09-.72.54-1.61.81-2.67.81-.85,0-1.61-.19-2.27-.57-.67-.38-1.19-.92-1.57-1.62-.38-.7-.57-1.51-.57-2.44s.19-1.73.55-2.43.89-1.23,1.56-1.61,1.44-.56,2.31-.56,1.6.18,2.25.55c.65.37,1.15.88,1.51,1.52s.53,1.38.53,2.19c0,.28-.02.58-.05.9ZM132.08,79.42c-.25-.41-.59-.72-1.02-.93-.43-.21-.91-.32-1.43-.32-.75,0-1.39.24-1.92.72-.53.48-.83,1.14-.91,1.99h5.64c0-.56-.12-1.05-.38-1.46Z"/>
    <path class="st0" d="M143.19,77.43c.58-.34,1.26-.51,2.03-.51s1.51.19,2.16.57c.65.38,1.15.92,1.52,1.61.37.69.55,1.49.55,2.4s-.18,1.71-.55,2.41c-.37.71-.88,1.25-1.52,1.65-.65.39-1.37.59-2.16.59s-1.43-.17-2.01-.51c-.58-.34-1.02-.77-1.33-1.28v5.88h-1.48v-13.17h1.48v1.65c.29-.51.73-.94,1.31-1.28ZM147.53,79.74c-.27-.5-.64-.88-1.1-1.14s-.97-.39-1.52-.39-1.05.13-1.51.4c-.46.27-.83.65-1.11,1.16-.28.5-.42,1.09-.42,1.75s.14,1.26.42,1.77c.28.5.65.89,1.11,1.16s.96.4,1.51.4,1.06-.13,1.52-.4.83-.65,1.1-1.16c.27-.51.41-1.1.41-1.79s-.14-1.26-.41-1.76Z"/>
    <path class="st0" d="M154.06,77.33c.48-.28,1.07-.42,1.77-.42v1.53h-.39c-1.66,0-2.49.9-2.49,2.71v4.86h-1.48v-8.93h1.48v1.45c.26-.51.63-.91,1.12-1.19Z"/>
    <path class="st0" d="M159.21,85.58c-.68-.38-1.21-.92-1.6-1.62-.39-.7-.58-1.51-.58-2.44s.2-1.72.6-2.42c.4-.7.94-1.24,1.62-1.61.69-.38,1.45-.56,2.3-.56s1.61.19,2.3.56,1.23.91,1.62,1.61.59,1.5.59,2.43-.2,1.74-.61,2.44c-.41.7-.96,1.24-1.65,1.62-.7.38-1.47.57-2.31.57s-1.59-.19-2.27-.57ZM162.99,84.47c.47-.25.84-.62,1.13-1.12.29-.5.43-1.11.43-1.83s-.14-1.33-.42-1.83c-.28-.5-.65-.87-1.11-1.12-.46-.24-.95-.37-1.48-.37s-1.04.12-1.49.37c-.45.25-.81.62-1.08,1.12-.27.5-.41,1.11-.41,1.83s.13,1.34.4,1.84c.27.5.62.87,1.07,1.12.45.25.93.37,1.47.37s1.03-.12,1.5-.38Z"/>
    <path class="st0" d="M169.6,87.94c0,.79-.2,1.38-.6,1.74-.4.37-.99.55-1.76.55h-.86v-1.26h.62c.41,0,.7-.08.87-.24.17-.16.25-.44.25-.83v-10.84h1.48v10.87ZM168.16,75.32c-.19-.2-.29-.43-.29-.72s.09-.52.29-.72c.19-.2.43-.29.71-.29s.52.1.71.29c.19.2.29.44.29.72s-.1.52-.29.72c-.19.2-.43.29-.71.29s-.52-.1-.71-.29Z"/>
    <path class="st0" d="M180.26,82.09h-7.14c.05.88.36,1.57.91,2.06.55.49,1.21.74,2,.74.64,0,1.18-.15,1.61-.45.43-.3.73-.7.91-1.2h1.6c-.24.86-.72,1.56-1.43,2.09-.72.54-1.61.81-2.67.81-.85,0-1.61-.19-2.27-.57-.67-.38-1.19-.92-1.57-1.62-.38-.7-.57-1.51-.57-2.44s.18-1.73.55-2.43c.37-.7.89-1.23,1.56-1.61.67-.38,1.44-.56,2.31-.56s1.6.18,2.25.55c.65.37,1.15.88,1.51,1.52.35.65.53,1.38.53,2.19,0,.28-.02.58-.05.9ZM178.4,79.42c-.25-.41-.59-.72-1.02-.93-.43-.21-.9-.32-1.43-.32-.75,0-1.39.24-1.92.72-.53.48-.83,1.14-.9,1.99h5.64c0-.56-.12-1.05-.38-1.46Z"/>
    <path class="st0" d="M184.13,78.29v5.26c0,.44.09.74.28.92.19.18.51.27.96.27h1.09v1.25h-1.34c-.83,0-1.45-.19-1.86-.57-.41-.38-.62-1-.62-1.88v-5.26h-1.16v-1.22h1.16v-2.25h1.48v2.25h2.33v1.22h-2.33Z"/>
    <path class="st0" d="M189.62,85.8c-.54-.23-.97-.56-1.29-.98-.32-.42-.49-.9-.52-1.44h1.53c.04.45.25.81.63,1.09.38.28.87.42,1.48.42.56,0,1.01-.12,1.34-.38.33-.25.49-.56.49-.95s-.17-.68-.52-.87-.89-.38-1.61-.56c-.66-.17-1.2-.35-1.62-.53-.42-.18-.78-.45-1.08-.8s-.45-.82-.45-1.39c0-.46.14-.88.41-1.25.27-.38.66-.68,1.16-.91.5-.22,1.07-.33,1.71-.33.99,0,1.79.25,2.4.75s.93,1.18.98,2.05h-1.48c-.03-.47-.22-.84-.56-1.12-.34-.28-.8-.42-1.38-.42-.53,0-.96.11-1.27.34-.32.23-.47.53-.47.9,0,.29.1.54.29.73.19.19.43.34.72.46.29.11.69.24,1.2.38.64.17,1.16.34,1.56.51.4.17.75.42,1.04.76s.44.78.45,1.32c0,.49-.14.93-.41,1.32-.27.39-.66.7-1.15.92-.5.22-1.06.33-1.7.33-.68,0-1.3-.12-1.84-.35Z"/>
    <path class="st0" d="M201.31,75.32c-.2-.2-.29-.43-.29-.72s.1-.52.29-.72c.2-.2.43-.29.72-.29s.5.1.69.29c.19.2.29.44.29.72s-.1.52-.29.72c-.19.2-.42.29-.69.29s-.52-.1-.72-.29ZM202.74,77.07v8.93h-1.48v-8.93h1.48Z"/>
    <path class="st0" d="M217.92,77.34c.54.29.97.72,1.29,1.3.31.58.47,1.28.47,2.1v5.26h-1.47v-5.05c0-.89-.22-1.57-.66-2.05-.44-.47-1.04-.71-1.79-.71s-1.39.25-1.84.74c-.46.5-.68,1.21-.68,2.14v4.92h-1.47v-5.05c0-.89-.22-1.57-.66-2.05-.44-.47-1.04-.71-1.79-.71s-1.39.25-1.84.74c-.46.5-.68,1.21-.68,2.14v4.92h-1.48v-8.93h1.48v1.29c.29-.47.69-.83,1.18-1.08s1.04-.38,1.64-.38c.75,0,1.41.17,1.99.51.58.34,1,.83,1.29,1.48.25-.63.66-1.12,1.24-1.47.58-.35,1.22-.52,1.92-.52s1.32.14,1.86.43Z"/>
    <path class="st0" d="M234.75,77.34c.54.29.97.72,1.29,1.3.32.58.47,1.28.47,2.1v5.26h-1.47v-5.05c0-.89-.22-1.57-.66-2.05-.44-.47-1.04-.71-1.78-.71s-1.39.25-1.84.74c-.46.5-.68,1.21-.68,2.14v4.92h-1.47v-5.05c0-.89-.22-1.57-.66-2.05-.44-.47-1.04-.71-1.78-.71s-1.39.25-1.84.74c-.46.5-.68,1.21-.68,2.14v4.92h-1.48v-8.93h1.48v1.29c.29-.47.69-.83,1.18-1.08.5-.25,1.04-.38,1.64-.38.75,0,1.41.17,1.99.51s1,.83,1.29,1.48c.25-.63.66-1.12,1.24-1.47.58-.35,1.22-.52,1.92-.52s1.31.14,1.86.43Z"/>
    <path class="st0" d="M240.61,85.58c-.68-.38-1.21-.92-1.6-1.62-.39-.7-.58-1.51-.58-2.44s.2-1.72.59-2.42c.4-.7.94-1.24,1.62-1.61s1.45-.56,2.3-.56,1.61.19,2.3.56,1.22.91,1.62,1.61c.4.7.59,1.5.59,2.43s-.2,1.74-.61,2.44c-.41.7-.96,1.24-1.65,1.62-.7.38-1.47.57-2.31.57s-1.59-.19-2.27-.57ZM244.39,84.47c.47-.25.84-.62,1.13-1.12.29-.5.43-1.11.43-1.83s-.14-1.33-.42-1.83c-.28-.5-.65-.87-1.11-1.12-.46-.24-.95-.37-1.48-.37s-1.04.12-1.49.37c-.45.25-.81.62-1.08,1.12-.27.5-.41,1.11-.41,1.83s.13,1.34.4,1.84.62.87,1.07,1.12c.45.25.93.37,1.47.37s1.03-.12,1.5-.38Z"/>
    <path class="st0" d="M252.29,77.43c.59-.34,1.25-.5,2-.5.8,0,1.53.19,2.17.57.64.38,1.15.92,1.52,1.61.37.69.55,1.49.55,2.4s-.18,1.71-.55,2.41c-.37.71-.88,1.25-1.52,1.65-.65.39-1.37.59-2.16.59s-1.45-.17-2.03-.5c-.58-.34-1.02-.77-1.31-1.29v1.65h-1.48v-12.06h1.48v4.79c.3-.53.75-.97,1.34-1.3ZM256.61,79.74c-.27-.5-.64-.88-1.1-1.14s-.97-.39-1.52-.39-1.05.13-1.51.4c-.46.27-.83.65-1.11,1.16-.28.5-.42,1.09-.42,1.75s.14,1.26.42,1.77c.28.5.65.89,1.11,1.16s.96.4,1.51.4,1.06-.13,1.52-.4.83-.65,1.1-1.16c.27-.51.41-1.1.41-1.79s-.14-1.26-.41-1.76Z"/>
    <path class="st0" d="M260.59,75.32c-.2-.2-.29-.43-.29-.72s.1-.52.29-.72.43-.29.72-.29.5.1.69.29c.19.2.29.44.29.72s-.09.52-.29.72c-.19.2-.42.29-.69.29s-.52-.1-.72-.29ZM262.02,77.07v8.93h-1.48v-8.93h1.48Z"/>
    <path class="st0" d="M266.08,73.94v12.06h-1.48v-12.06h1.48Z"/>
    <path class="st0" d="M268.71,75.32c-.2-.2-.29-.43-.29-.72s.1-.52.29-.72c.2-.2.43-.29.72-.29s.5.1.69.29c.19.2.29.44.29.72s-.1.52-.29.72c-.19.2-.42.29-.69.29s-.52-.1-.72-.29ZM270.14,77.07v8.93h-1.48v-8.93h1.48Z"/>
    <path class="st0" d="M280.82,82.09h-7.14c.05.88.36,1.57.9,2.06.55.49,1.21.74,2,.74.64,0,1.18-.15,1.61-.45.43-.3.73-.7.9-1.2h1.6c-.24.86-.72,1.56-1.43,2.09-.72.54-1.61.81-2.67.81-.85,0-1.61-.19-2.27-.57-.67-.38-1.19-.92-1.57-1.62-.38-.7-.57-1.51-.57-2.44s.19-1.73.55-2.43.89-1.23,1.56-1.61,1.44-.56,2.31-.56,1.6.18,2.25.55c.65.37,1.15.88,1.51,1.52s.53,1.38.53,2.19c0,.28-.02.58-.05.9ZM278.96,79.42c-.25-.41-.59-.72-1.02-.93-.43-.21-.91-.32-1.43-.32-.75,0-1.39.24-1.92.72-.53.48-.83,1.14-.91,1.99h5.64c0-.56-.12-1.05-.38-1.46Z"/>
    <path class="st0" d="M285.47,77.33c.48-.28,1.07-.42,1.77-.42v1.53h-.39c-1.66,0-2.49.9-2.49,2.71v4.86h-1.48v-8.93h1.48v1.45c.26-.51.63-.91,1.12-1.19Z"/>
    <path class="st0" d="M290.32,85.8c-.54-.23-.97-.56-1.29-.98s-.49-.9-.52-1.44h1.53c.04.45.25.81.63,1.09.38.28.87.42,1.47.42.57,0,1.01-.12,1.34-.38s.49-.56.49-.95-.17-.68-.52-.87c-.35-.19-.89-.38-1.61-.56-.66-.17-1.2-.35-1.62-.53-.42-.18-.78-.45-1.08-.8s-.45-.82-.45-1.39c0-.46.14-.88.41-1.25.27-.38.66-.68,1.16-.91s1.07-.33,1.71-.33c.99,0,1.79.25,2.4.75s.93,1.18.98,2.05h-1.48c-.03-.47-.22-.84-.56-1.12-.34-.28-.8-.42-1.38-.42-.53,0-.96.11-1.27.34-.32.23-.47.53-.47.9,0,.29.09.54.29.73s.43.34.72.46.69.24,1.2.38c.64.17,1.16.34,1.56.51.4.17.75.42,1.04.76.29.34.44.78.45,1.32,0,.49-.14.93-.41,1.32s-.65.7-1.15.92c-.49.22-1.06.33-1.7.33-.68,0-1.3-.12-1.84-.35Z"/>
  </g>
  <g>
    <path class="st0" d="M42.4,46.84c2.32-2.15,4.61-4.27,6.94-6.42,1.63,1.71,3.19,3.35,4.77,5,3.68-4.44,3.28-11.75-1.32-16.62-4.92-5.21-12.98-5.77-18.58-1.27-5.59,4.49-6.75,12.78-2.62,18.74,3.09,4.48,11.12,7.06,14.93,4.85-1.34-1.39-2.68-2.8-4.11-4.29M16.37,33.49c1.96-10.72,10.24-18.94,20.97-20.72,6.89-1.14,13.54-.42,19.7,3.05,6.8,3.83,10.81,9.71,12.2,17.36,1.42,7.83-.28,14.94-5.15,21.26-.19.24-.36.5-.54.75-.04.06-.04.14-.04.14,1.21,1.29,2.38,2.54,3.6,3.84-1.25,1.11-2.57,2.28-3.87,3.47-1.04.95-2.05,1.92-3.08,2.88h-.15c-1.3-1.57-2.6-3.14-3.76-4.55-1.98.79-3.72,1.66-5.55,2.17-4.31,1.2-8.69,1.01-13.07.37-12.32-1.8-19.14-11.06-21.11-19.97-.85-3.42-.47-8.32-.16-10.05Z"/>
    <path class="st0" d="M183.55,53.4c4.08.08,7.54-3.27,7.63-7.4.08-4.08-3.25-7.56-7.51-7.6-4.24-.04-7.52,3.17-7.65,7.28-.13,4.24,3.2,7.62,7.52,7.71M190.85,32.48v-.82c0-5.68.01-11.36-.02-17.05,0-.73.17-.97.93-.96,3.26.04,6.53.02,9.8.02h.85v48.55c-.24.02-.47.05-.69.05-3.34,0-6.68-.02-10.03.02-.69,0-.9-.2-.86-.87.05-.81.01-1.62.01-2.58-.24.17-.37.23-.46.33-2.39,2.88-5.59,4.05-9.18,4.14-8.7.22-15.67-5.58-17.03-14.24-1.07-6.81.71-12.77,6.24-17.14,5.01-3.96,10.68-4.49,16.56-2.1,1.13.46,2.05,1.42,3.06,2.16.22.16.41.37.61.56.07-.02.13-.05.2-.07"/>
    <path class="st0" d="M264.49,45.75c0-4.15-3.4-7.57-7.53-7.57-4.12,0-7.63,3.41-7.6,7.53.04,4.32,3.26,7.56,7.56,7.63,4.17.07,7.57-3.39,7.57-7.59M264.18,32.19v-2.87h11.59v32.9h-11.58v-3.39c-.85.77-1.57,1.52-2.4,2.14-2.38,1.78-5.11,2.44-8.04,2.43-8.17-.03-14.84-5.94-16.21-14.17-1.16-6.98.6-13.15,6.35-17.62,4.96-3.86,10.55-4.46,16.35-2.03,1.4.59,2.59,1.7,3.94,2.62"/>
    <path class="st0" d="M130.76,45.75c.01,4.19,3.38,7.59,7.52,7.6,4.19.02,7.6-3.4,7.6-7.6,0-4.16-3.4-7.57-7.55-7.57-4.13,0-7.58,3.44-7.57,7.57M145.58,32.41v-3.11h11.55v32.9h-11.54v-3.25c-.06-.02-.12-.04-.18-.07-.32.34-.63.69-.97,1.02-2.63,2.54-5.84,3.5-9.42,3.47-8.63-.06-15.27-6.84-16.22-15.13-.64-5.59.61-10.65,4.48-14.84,3.71-4.03,8.4-5.64,13.84-5.09,3.12.31,5.86,1.45,8.04,3.78.07.07.16.12.43.31"/>
    <path class="st0" d="M76.73,29.5h1.01c3.21,0,6.43.02,9.64-.01.67,0,.88.15.88.85-.03,5.84-.02,11.67,0,17.51,0,.82.08,1.65.26,2.44.49,2.05,1.79,3.36,3.88,3.68,1.15.18,2.37.22,3.51.05,2.58-.39,4.06-2.13,4.24-4.73.04-.54.06-1.08.06-1.62,0-5.81,0-11.62,0-17.43,0-.43.01-.75.59-.75,3.55.02,7.1,0,10.64.01.1,0,.2.03.34.05.03.15.07.3.07.44,0,6.94.06,13.89-.04,20.83-.09,6.01-3.19,9.98-8.95,11.74-4.04,1.23-8.18,1.38-12.36.97-2.79-.28-5.48-.89-7.93-2.28-3.93-2.24-5.82-5.72-5.87-10.16-.08-7.02-.02-14.04-.02-21.06,0-.15.03-.3.05-.53"/>
    <path class="st0" d="M222.09,34.57c3.22-4.72,7.79-5.88,13.11-5.43v10.94c-.43-.17-.82-.33-1.21-.48-2.3-.85-4.64-.87-6.95-.1-2.89.96-4.85,3.75-4.89,6.99-.07,4.96-.04,9.92-.06,14.88,0,.27,0,.55,0,.86h-11.56V29.58c.17-.02.36-.07.56-.07,3.37,0,6.73.02,10.1,0,.72,0,.93.24.91.93-.04,1.38-.01,2.76-.01,4.15"/>
    <rect class="st0" x="283.83" y="13.74" width="11.58" height="48.49"/>
  </g>
</svg>