<svg width="326" height="299" viewBox="0 0 326 299" fill="none" xmlns="http://www.w3.org/2000/svg">
<g clip-path="url(#clip0_163_70239)">
<path d="M65.27 183.33C59.98 183.33 58.15 182.41 58.15 180.08C58.15 177.08 59.34 175.84 65.06 175.84H71.06C78.54 175.84 79.32 176.84 79.32 179.51C79.32 181.92 78.47 183.33 69.16 183.33H65.27ZM44.99 181.53C44.99 190.01 50.28 191.83 58.54 191.76H67.78C74.55 191.76 75.97 190.99 79.7 187.11V191.2H92.54V167.57C92.54 159.11 87.6 154.66 78.29 154.66H62.56C51.12 154.66 46.33 156.28 46.33 166.02H59.46C59.59 163.48 60.72 163.13 64.67 163.13H72.67C77.96 163.13 79.01 164.4 79.01 167.93V171.1C76.41 168.42 72.32 168.21 64.9 168.21C51.78 168.21 45.01 168.77 45.01 178.58L44.99 181.53Z" fill="#00628B"/>
<path d="M101.22 155.22H114.77V161.01H114.91C117.31 156.01 122.04 154.66 129.31 154.66C137.71 154.66 149.42 155.02 149.42 170.53V191.21H135.87V170.5C135.87 166.97 133.05 165.21 127.12 165.21H124.01C118.23 165.21 114.77 167.9 114.77 173.05V191.18H101.22V155.22Z" fill="#00628B"/>
<path d="M161.98 164.96H155.17V155.22H161.94V146.76H175.48V155.22H196.57V164.96H175.52V178.79C175.52 181.48 177.52 182.04 180.74 182.04C185.11 182.04 186.32 181.04 186.32 177.73V175.33H198.17V179.7C198.17 186.56 193.65 191.7 182.86 191.7H177.53C169.2 191.7 162 189.09 162 179.14L161.98 164.96Z" fill="#00628B"/>
<path d="M220.17 191.21H206.59V155.21H220.17V191.21ZM220.17 150.71H206.59V140.12H220.17V150.71Z" fill="#00628B"/>
<path d="M230.22 155.22H243.76V161.01H243.91C246.3 156.01 251.03 154.66 258.3 154.66C266.7 154.66 278.41 155.02 278.41 170.53V191.21H264.86V170.5C264.86 166.97 262.04 165.21 256.11 165.21H253.01C247.22 165.21 243.76 167.9 243.76 173.05V191.18H230.22V155.22Z" fill="#00628B"/>
<path d="M46.8701 205.04H49.5701V207.59H49.6401C50.7101 205.36 52.9001 204.82 54.8901 204.82H57.6101C63.0401 204.82 64.8201 206.57 64.8201 210.82V212.88H62.1701V212.14C62.1701 207.89 61.3001 207.22 56.1701 207.22H54.3301C51.2601 207.22 49.7801 209.22 49.7801 211.39V222.26H46.8701V205.04Z" fill="#00628B"/>
<path d="M86.58 211.78H70.38C70.65 207.87 71.73 207.13 76.31 207.13H80.56C85.27 207.13 86.56 208.88 86.56 210.63L86.58 211.78ZM75.58 202.41H77.83L84.03 196.18H80.59L75.58 202.41ZM67.47 215.41C67.47 221.75 71.78 222.41 75.54 222.41H80.7999C86.1899 222.41 89.46 221.24 89.46 217.3V216.96H86.56C86.39 219.58 84.91 220.05 81.27 220.05H77.27C72.27 220.05 70.33 219.05 70.33 215.14V214.06H89.43V212.15C89.43 206.01 85.6899 204.7 80.5099 204.7H75.8699C71.7599 204.7 67.45 205.41 67.45 211.64L67.47 215.41Z" fill="#00628B"/>
<path d="M93.3899 216.33H96.0799V217.17C96.0799 219.29 97.1799 220.17 100.15 220.17H106.36C110.71 220.17 112.09 220 112.09 217.45V217.33C112.09 215.67 111.63 214.76 108.15 214.76H99.2299C95.1499 214.76 93.6399 213.45 93.6399 210.18V209.18C93.6399 206.38 95.2199 204.83 102.36 204.83H106.81C113.34 204.83 114.25 206.71 114.25 209.14V210.05H111.56V209.88C111.56 207.26 109.8 207.19 106.64 207.19H101.64C97.4999 207.19 96.6399 207.6 96.6399 209.54V210.18C96.6399 211.6 97.1099 212.41 100.15 212.41H107.79C112.14 212.41 115.09 212.85 115.09 217.49V217.56C115.09 222.38 110.65 222.56 107.09 222.56H101.76C97.4899 222.56 93.4899 222.56 93.4899 217.41L93.3899 216.33Z" fill="#00628B"/>
<path d="M120.17 205.04H123.06V222.22H120.17V205.04ZM120.17 197.83H123.06V200.99H120.17V197.83Z" fill="#00628B"/>
<path d="M131.07 211.85C131.07 207.85 133.07 207.13 137.07 207.13H140.97C144.88 207.13 147.27 207.8 147.27 211.91V215.17C147.27 218.31 145.89 220.12 141.58 220.12H136.86C132.15 220.12 131.11 218.54 131.11 215.21L131.07 211.85ZM150.07 197.85H147.17V207.33C146.56 205.54 144.97 204.77 141.67 204.77H137.26C130.26 204.77 128.17 206.77 128.17 212.22V215.22C128.17 221.15 131.84 222.46 137.1 222.46H141.1C144.1 222.46 146.5 221.56 147.34 219.46H147.47V222.2H150.17L150.07 197.85Z" fill="#00628B"/>
<path d="M173.91 211.78H157.7C157.97 207.87 159.05 207.13 163.63 207.13H167.87C172.6 207.13 173.87 208.88 173.87 210.63L173.91 211.78ZM154.8 215.44C154.8 221.78 159.12 222.44 162.89 222.44H168.17C173.56 222.44 176.82 221.27 176.82 217.33V216.99H173.93C173.76 219.61 172.27 220.08 168.64 220.08H164.64C159.64 220.08 157.69 219.08 157.69 215.17V214.09H176.79V212.18C176.79 206.04 173.06 204.73 167.86 204.73H163.17C159.06 204.73 154.74 205.44 154.74 211.67L154.8 215.44Z" fill="#00628B"/>
<path d="M181.35 205.04H184.04V208.04H184.11C185.18 205.37 187.45 204.8 191.05 204.8H195.4C200.82 204.8 202.53 207.53 202.53 210.62V222.25H199.64V211.33C199.64 208.81 198.92 207.16 193.3 207.16H192.56C185.8 207.16 184.24 208.44 184.24 212.48V222.25H181.35V205.04Z" fill="#00628B"/>
<path d="M207.17 211.71C207.17 205.48 211.55 204.77 215.79 204.77H220.64C226.03 204.77 228.15 206.95 228.15 210.59V211.07H225.46V210.66C225.46 207.8 223.58 207.13 220.67 207.13H215.35C212.63 207.13 210.07 207.54 210.07 211.81V215.41C210.07 219.25 212.43 220.12 215.93 220.12H220.81C223.5 220.12 225.81 219.32 225.81 216.53V215.96H228.5V216.46C228.5 220.81 226.35 222.46 220.95 222.46H214.42C211.82 222.46 207.21 221.76 207.21 215.52L207.17 211.71Z" fill="#00628B"/>
<path d="M251.26 211.78H235.07C235.34 207.87 236.42 207.13 240.99 207.13H245.23C249.95 207.13 251.23 208.88 251.23 210.63L251.26 211.78ZM232.17 215.44C232.17 221.78 236.48 222.44 240.25 222.44H245.5C250.89 222.44 254.16 221.27 254.16 217.33V216.99H251.26C251.1 219.61 249.61 220.08 245.97 220.08H241.97C236.97 220.08 235.04 219.08 235.04 215.17V214.09H254.04V212.18C254.04 206.04 250.3 204.73 245.11 204.73H240.47C236.36 204.73 232.05 205.44 232.05 211.67L232.17 215.44Z" fill="#00628B"/>
<path d="M258.07 216.33H260.77V217.17C260.77 219.29 261.87 220.17 264.83 220.17H271.04C275.38 220.17 276.76 220 276.76 217.45V217.33C276.76 215.67 276.28 214.76 272.82 214.76H263.89C259.81 214.76 258.3 213.45 258.3 210.18V209.18C258.3 206.38 259.88 204.83 267.03 204.83H271.47C278 204.83 278.92 206.71 278.92 209.14V210.05H276.22V209.88C276.22 207.26 274.47 207.19 271.31 207.19H266.25C262.11 207.19 261.25 207.6 261.25 209.54V210.18C261.25 211.6 261.72 212.41 264.75 212.41H272.4C276.74 212.41 279.7 212.85 279.7 217.49V217.56C279.7 222.38 275.26 222.56 271.7 222.56H266.38C262.1 222.56 258.1 222.56 258.1 217.41L258.07 216.33Z" fill="#00628B"/>
<path d="M285.89 85.38L200.5 0L115.11 85.38H285.89Z" fill="#00628B"/>
<path d="M98.9401 91.82L176.78 13.97L162.82 0L40.0901 122.72H285.54L254.64 91.82H98.9401Z" fill="#00628B"/>
<path d="M323.17 269.33C317.63 269.33 316.29 275.33 314.03 285.15C310.86 283.15 313.19 270.93 306.17 270.93C304.95 270.969 303.748 271.241 302.63 271.73C307.1 280.31 306.3 290.43 314.83 290.43C315.587 290.432 316.343 290.368 317.09 290.24L325.96 269.76C325.049 269.512 324.113 269.368 323.17 269.33" fill="#878787"/>
<path d="M266.8 285.12C263.64 283.12 265.97 270.9 258.94 270.9C257.72 270.939 256.518 271.211 255.4 271.7C259.87 280.28 259.07 290.4 267.6 290.4C268.363 290.4 269.126 290.34 269.88 290.22L278.76 269.73C277.845 269.483 276.906 269.339 275.96 269.3C270.43 269.3 269.08 275.3 266.82 285.12" fill="#878787"/>
<path d="M290.17 285.52C288.03 281.95 289.43 270.9 283 270.9C281.78 270.938 280.578 271.21 279.46 271.7C283.46 279.32 283.13 288.15 288.98 290.03C288.41 291.94 287.61 293.74 286.39 293.74C285.46 293.74 284.46 293.43 283.39 293.43C280.85 293.43 280.12 294.53 279.32 297.01C281.058 298.049 283.027 298.64 285.05 298.73C288.98 298.73 291.94 295.16 293.92 290.21C295.15 287.12 302.12 269.73 302.12 269.73C301.432 269.483 300.711 269.338 299.98 269.3C294.06 269.3 292.85 275.3 290.16 285.52" fill="#878787"/>
<path d="M1.36006 294.02C1.95006 293.6 2.54006 293.18 3.17006 292.8C4.36006 294.8 6.85006 295.67 9.30006 295.67C14.4901 295.67 15.7401 293.01 15.9501 287.02C15.1892 288.165 14.1439 289.092 12.9168 289.711C11.6896 290.329 10.3227 290.619 8.95006 290.55C7.7572 290.603 6.5664 290.406 5.45417 289.972C4.34194 289.538 3.3329 288.875 2.49188 288.028C1.65087 287.18 0.996484 286.166 0.570787 285.05C0.14509 283.935 -0.0425044 282.742 0.0200599 281.55C0.0200599 275.55 3.74006 272.2 8.74006 272.2C10.1514 272.137 11.5555 272.435 12.8191 273.067C14.0827 273.699 15.1639 274.643 15.9601 275.81C16.0301 274.81 16.0601 273.71 16.1001 272.65H18.3301V288.94C18.3301 295.13 15.1901 297.94 9.33006 297.94C6.08006 297.84 3.00006 296.79 1.36006 294.02ZM9.26006 288.46C13.1101 288.46 15.9501 286.04 15.9501 281.76C15.9501 280.86 15.9501 279.91 15.8801 279C15.1201 276.2 12.7001 274.35 9.30006 274.35C5.09006 274.35 2.37006 277.18 2.37006 281.62C2.32558 282.474 2.44994 283.329 2.73603 284.135C3.02211 284.942 3.46431 285.684 4.03733 286.319C4.61036 286.954 5.30298 287.47 6.07559 287.838C6.8482 288.205 7.68565 288.416 8.54006 288.46C8.77983 288.475 9.02029 288.475 9.26006 288.46Z" fill="#878787"/>
<path d="M24.4299 272.95H26.2399L26.6899 275.35C27.1313 274.434 27.8416 273.674 28.7261 273.172C29.6105 272.67 30.627 272.449 31.6399 272.54C32.7712 272.578 33.8707 272.924 34.8199 273.54L33.6599 275.63C32.8729 275.051 31.9166 274.749 30.9399 274.77C28.8199 274.77 26.6899 276.77 26.6899 281.18V290.1H24.4299V272.95Z" fill="#878787"/>
<path d="M35.8799 281.52C35.8799 276.52 39.3799 272.52 44.5999 272.52C49.8199 272.52 53.3099 276.52 53.3099 281.52C53.3099 286.52 49.8199 290.52 44.5999 290.52C39.3799 290.52 35.8799 286.54 35.8799 281.52ZM51.0499 281.52C51.0499 277.37 48.1299 274.6 44.5999 274.6C41.0699 274.6 38.1699 277.33 38.1699 281.52C38.1699 285.71 41.0899 288.46 44.6199 288.46C48.1499 288.46 51.0499 285.67 51.0499 281.52Z" fill="#878787"/>
<path d="M57.7 283.42V272.95H59.97V283.76C59.9349 284.344 60.0159 284.93 60.2085 285.483C60.4011 286.036 60.7013 286.545 61.0919 286.981C61.4824 287.417 61.9555 287.771 62.4839 288.024C63.0122 288.276 63.5853 288.421 64.17 288.45H64.5499C67.2299 288.45 69.32 286.5 69.32 282.89V272.94H71.58V290.09H69.71L69.27 288.17C68.6484 288.964 67.8403 289.592 66.9174 289.999C65.9945 290.405 64.9854 290.578 63.9799 290.5C59.5599 290.51 57.7 287.46 57.7 283.42Z" fill="#878787"/>
<path d="M77.98 272.95H79.8L80.15 275.95C80.831 274.915 81.7568 274.065 82.8453 273.473C83.9337 272.882 85.1513 272.568 86.39 272.56C91.8 272.56 94.89 276.56 94.89 281.56C94.89 286.56 91.46 290.56 86.39 290.56C85.1965 290.619 84.0077 290.374 82.9341 289.85C81.8605 289.325 80.9371 288.538 80.25 287.56V296.99H77.98V272.95ZM92.62 281.52C92.62 277.72 90.19 274.6 86.39 274.6C82.59 274.6 80.17 277.72 80.17 281.52C80.17 285.32 82.6 288.46 86.41 288.46C90.22 288.46 92.62 285.33 92.62 281.52Z" fill="#878787"/>
<path d="M98.5701 281.52C98.5701 276.52 101.57 272.52 107.11 272.52C112.25 272.52 114.96 276.46 114.96 281.09C114.971 281.505 114.948 281.919 114.89 282.33H100.89C101.2 286.03 103.54 288.44 107.14 288.44C108.308 288.449 109.456 288.128 110.45 287.514C111.444 286.9 112.245 286.019 112.76 284.97L114.54 285.97C113.879 287.359 112.827 288.524 111.512 289.322C110.197 290.12 108.677 290.515 107.14 290.46C101.55 290.51 98.5701 286.54 98.5701 281.52ZM112.8 280.33C112.46 276.86 110.57 274.64 107.11 274.64C103.65 274.64 101.34 276.86 100.9 280.33H112.8Z" fill="#878787"/>
<path d="M132.76 266.09H138.17L147.02 290.14H141.39L139.71 285.41H131.13L129.47 290.1H123.91L132.76 266.09ZM138.02 280.46L135.37 272.73L132.73 280.48L138.02 280.46Z" fill="#878787"/>
<path d="M148.62 272.95H153.04L153.49 275.18C153.931 274.354 154.595 273.669 155.407 273.203C156.218 272.736 157.145 272.506 158.08 272.54C158.901 272.54 159.715 272.679 160.49 272.95L159.49 278.27C158.74 277.904 157.915 277.716 157.08 277.72C155.23 277.72 153.82 278.96 153.82 281.52V290.1H148.61L148.62 272.95Z" fill="#878787"/>
<path d="M160.22 281.52C160.155 279.201 161.013 276.952 162.604 275.265C164.196 273.578 166.392 272.591 168.71 272.52H169.31C170.995 272.433 172.667 272.866 174.098 273.76C175.529 274.654 176.65 275.967 177.31 277.52L172.54 279.52C172.323 278.814 171.879 278.199 171.277 277.77C170.675 277.342 169.948 277.124 169.21 277.15C166.94 277.15 165.47 278.97 165.47 281.57C165.47 284.17 167.05 286 169.32 286C170.046 286.024 170.762 285.819 171.365 285.413C171.968 285.007 172.428 284.422 172.68 283.74L177.41 285.66C176.24 288.37 173.33 290.56 169.21 290.56C168.072 290.604 166.937 290.424 165.868 290.029C164.8 289.634 163.82 289.033 162.984 288.259C162.149 287.486 161.473 286.555 160.997 285.521C160.521 284.486 160.254 283.368 160.21 282.23C160.17 281.99 160.17 281.76 160.22 281.52Z" fill="#878787"/>
<path d="M178.67 281.52C178.67 275.76 182.82 272.52 186.94 272.52C188.753 272.469 190.513 273.133 191.84 274.37L192.36 272.93H197.17V290.08H192.61L191.89 288.54C191.226 289.207 190.428 289.726 189.549 290.062C188.67 290.398 187.73 290.544 186.79 290.49C182.38 290.51 178.67 286.95 178.67 281.52ZM192.12 281.52C192.12 278.82 190.34 277.06 188.04 277.06C186.909 277.136 185.848 277.639 185.074 278.467C184.3 279.295 183.869 280.386 183.869 281.52C183.869 282.654 184.3 283.745 185.074 284.573C185.848 285.401 186.909 285.904 188.04 285.98C190.34 285.98 192.17 284.24 192.17 281.52H192.12Z" fill="#878787"/>
<path d="M200.11 281.52C200.11 275.52 204.33 272.52 208.48 272.52C209.399 272.477 210.317 272.633 211.169 272.979C212.022 273.324 212.79 273.85 213.42 274.52V265.6H218.62V290.12H214.26L213.68 288.12C213.011 288.876 212.187 289.478 211.263 289.885C210.34 290.293 209.339 290.496 208.33 290.48C203.89 290.51 200.11 287.16 200.11 281.52ZM213.59 281.52C213.541 280.493 213.091 279.526 212.338 278.825C211.585 278.125 210.588 277.746 209.56 277.771C208.531 277.796 207.554 278.222 206.835 278.958C206.117 279.694 205.715 280.681 205.715 281.71C205.715 282.738 206.117 283.726 206.835 284.462C207.554 285.198 208.531 285.624 209.56 285.649C210.588 285.674 211.585 285.295 212.338 284.595C213.091 283.894 213.541 282.927 213.59 281.9C213.59 281.77 213.59 281.65 213.59 281.52Z" fill="#878787"/>
<path d="M221.63 281.52C221.63 276.21 225.16 272.52 230.38 272.52C236.28 272.52 239.16 276.52 239.16 280.95C239.158 281.598 239.091 282.245 238.96 282.88H226.84C226.946 283.793 227.402 284.629 228.113 285.211C228.824 285.793 229.734 286.076 230.65 286C231.373 286.037 232.092 285.869 232.723 285.515C233.355 285.161 233.874 284.636 234.22 284L238.49 286.08C237.02 288.9 234.22 290.51 230.37 290.51C225.17 290.51 221.63 286.88 221.63 281.52ZM233.84 279.33C233.691 278.534 233.258 277.82 232.621 277.32C231.985 276.819 231.188 276.567 230.38 276.61C229.568 276.57 228.768 276.822 228.126 277.321C227.484 277.82 227.042 278.533 226.88 279.33H233.84Z" fill="#878787"/>
<path d="M243.42 279.06H254.32V283.76H243.42V279.06Z" fill="#878787"/>
</g>
<defs>
<clipPath id="clip0_163_70239">
<rect width="326" height="298.73" fill="white"/>
</clipPath>
</defs>
</svg>
