<svg xmlns="http://www.w3.org/2000/svg" xmlns:xlink="http://www.w3.org/1999/xlink" id="Calque_1" x="0px" y="0px" viewBox="0 0 320.2 95.6" style="enable-background:new 0 0 320.2 95.6;" xml:space="preserve"><g>	<g>		<path style="fill:#163B67;" d="M5.3,91.3c-0.1-0.1-0.2-0.3-0.2-0.5V80c0-0.2,0.1-0.4,0.2-0.5c0.1-0.1,0.3-0.2,0.5-0.2    c0.2,0,0.4,0.1,0.5,0.2c0.1,0.1,0.2,0.3,0.2,0.5v10.3h5.6c0.2,0,0.4,0.1,0.5,0.2c0.1,0.1,0.2,0.3,0.2,0.4c0,0.2-0.1,0.3-0.2,0.4    c-0.1,0.1-0.3,0.2-0.5,0.2H5.8C5.6,91.5,5.5,91.5,5.3,91.3z"></path>		<path style="fill:#163B67;" d="M16,79.6c0.2,0.2,0.3,0.6,0.3,1c0,0.9-0.3,1.7-0.9,2.3c-0.1,0.1-0.2,0.2-0.4,0.2    c-0.1,0-0.2,0-0.3-0.1c-0.1-0.1-0.1-0.2-0.1-0.3c0-0.1,0-0.2,0.1-0.3c0.3-0.3,0.5-0.7,0.6-1.1c-0.3,0-0.5-0.1-0.6-0.3    c-0.2-0.2-0.2-0.4-0.2-0.7c0-0.3,0.1-0.5,0.3-0.7c0.2-0.2,0.4-0.3,0.7-0.3C15.6,79.3,15.8,79.4,16,79.6z"></path>		<path style="fill:#163B67;" d="M19,80.9c-0.2-0.2-0.3-0.4-0.3-0.6c0-0.3,0.1-0.5,0.3-0.6c0.2-0.2,0.4-0.2,0.7-0.2    c0.3,0,0.5,0.1,0.7,0.2c0.2,0.2,0.3,0.4,0.3,0.6c0,0.3-0.1,0.5-0.3,0.6c-0.2,0.2-0.4,0.2-0.7,0.2C19.4,81.1,19.2,81.1,19,80.9z     M19.2,91.4c-0.1-0.1-0.2-0.3-0.2-0.5v-7.3c0-0.2,0.1-0.4,0.2-0.5c0.1-0.1,0.3-0.2,0.5-0.2c0.2,0,0.4,0.1,0.5,0.2    c0.1,0.1,0.2,0.3,0.2,0.5v7.3c0,0.2-0.1,0.4-0.2,0.5c-0.1,0.1-0.3,0.2-0.5,0.2C19.5,91.6,19.3,91.5,19.2,91.4z"></path>		<path style="fill:#163B67;" d="M35.5,86.2v4.7c0,0.2-0.1,0.4-0.2,0.5c-0.1,0.1-0.3,0.2-0.5,0.2c-0.2,0-0.4-0.1-0.5-0.2    c-0.1-0.1-0.2-0.3-0.2-0.5v-4.6c0-0.8-0.1-1.3-0.4-1.7c-0.3-0.3-0.7-0.5-1.3-0.5c-0.7,0-1.3,0.2-1.7,0.7c-0.4,0.5-0.6,1.1-0.6,1.9    v4.2c0,0.2-0.1,0.4-0.2,0.5c-0.1,0.1-0.3,0.2-0.5,0.2c-0.2,0-0.4-0.1-0.5-0.2c-0.1-0.1-0.2-0.3-0.2-0.5v-4.6    c0-0.8-0.1-1.3-0.4-1.7c-0.3-0.3-0.7-0.5-1.3-0.5c-0.7,0-1.2,0.2-1.6,0.7c-0.4,0.5-0.6,1.1-0.6,1.9v4.2c0,0.2-0.1,0.4-0.2,0.5    c-0.1,0.1-0.3,0.2-0.5,0.2c-0.2,0-0.4-0.1-0.5-0.2c-0.1-0.1-0.2-0.3-0.2-0.5v-7.3c0-0.2,0.1-0.4,0.2-0.5c0.1-0.1,0.3-0.2,0.5-0.2    c0.2,0,0.4,0.1,0.5,0.2c0.1,0.1,0.2,0.3,0.2,0.5v0.8c0.3-0.5,0.6-0.9,1.1-1.1c0.4-0.3,1-0.4,1.6-0.4c1.3,0,2.2,0.6,2.6,1.7    c0.2-0.5,0.6-0.9,1.1-1.2c0.5-0.3,1.1-0.4,1.7-0.4C34.6,82.9,35.5,84,35.5,86.2z"></path>		<path style="fill:#163B67;" d="M50.6,86.2v4.7c0,0.2-0.1,0.4-0.2,0.5c-0.1,0.1-0.3,0.2-0.5,0.2c-0.2,0-0.4-0.1-0.5-0.2    c-0.1-0.1-0.2-0.3-0.2-0.5v-4.6c0-0.8-0.1-1.3-0.4-1.7c-0.3-0.3-0.7-0.5-1.3-0.5c-0.7,0-1.3,0.2-1.7,0.7c-0.4,0.5-0.6,1.1-0.6,1.9    v4.2c0,0.2-0.1,0.4-0.2,0.5c-0.1,0.1-0.3,0.2-0.5,0.2s-0.4-0.1-0.5-0.2c-0.1-0.1-0.2-0.3-0.2-0.5v-4.6c0-0.8-0.1-1.3-0.4-1.7    c-0.3-0.3-0.7-0.5-1.3-0.5c-0.7,0-1.2,0.2-1.6,0.7c-0.4,0.5-0.6,1.1-0.6,1.9v4.2c0,0.2-0.1,0.4-0.2,0.5c-0.1,0.1-0.3,0.2-0.5,0.2    c-0.2,0-0.4-0.1-0.5-0.2c-0.1-0.1-0.2-0.3-0.2-0.5v-7.3c0-0.2,0.1-0.4,0.2-0.5C38.8,83,39,83,39.2,83c0.2,0,0.4,0.1,0.5,0.2    c0.1,0.1,0.2,0.3,0.2,0.5v0.8c0.3-0.5,0.6-0.9,1.1-1.1c0.4-0.3,1-0.4,1.6-0.4c1.3,0,2.2,0.6,2.6,1.7c0.2-0.5,0.6-0.9,1.1-1.2    c0.5-0.3,1.1-0.4,1.7-0.4C49.7,82.9,50.6,84,50.6,86.2z"></path>		<path style="fill:#163B67;" d="M55,91.1c-0.6-0.4-1.1-0.9-1.4-1.5c-0.3-0.7-0.5-1.4-0.5-2.3c0-0.9,0.2-1.6,0.5-2.3    c0.3-0.7,0.8-1.2,1.4-1.5c0.6-0.4,1.3-0.5,2.1-0.5c0.8,0,1.5,0.2,2.1,0.5c0.6,0.4,1.1,0.9,1.4,1.5c0.3,0.7,0.5,1.4,0.5,2.3    c0,0.9-0.2,1.6-0.5,2.3c-0.3,0.7-0.8,1.2-1.4,1.5c-0.6,0.4-1.3,0.5-2.1,0.5C56.3,91.6,55.6,91.5,55,91.1z M59,89.7    c0.4-0.5,0.7-1.3,0.7-2.4c0-1-0.2-1.8-0.7-2.4c-0.4-0.6-1.1-0.8-1.9-0.8c-0.8,0-1.4,0.3-1.9,0.8c-0.4,0.6-0.7,1.3-0.7,2.4    c0,1,0.2,1.8,0.7,2.4c0.4,0.6,1.1,0.8,1.9,0.8C57.9,90.5,58.5,90.2,59,89.7z"></path>		<path style="fill:#163B67;" d="M69.7,83.5c0.6,0.4,1,0.9,1.3,1.5s0.5,1.4,0.5,2.3c0,0.9-0.2,1.6-0.5,2.3c-0.3,0.7-0.7,1.2-1.3,1.5    c-0.6,0.4-1.2,0.6-1.9,0.6c-0.7,0-1.2-0.1-1.7-0.4c-0.5-0.3-0.9-0.7-1.1-1.2v0.9c0,0.2-0.1,0.4-0.2,0.5c-0.1,0.1-0.3,0.2-0.5,0.2    c-0.2,0-0.4-0.1-0.5-0.2c-0.1-0.1-0.2-0.3-0.2-0.5V80c0-0.2,0.1-0.4,0.2-0.5c0.1-0.1,0.3-0.2,0.5-0.2c0.2,0,0.4,0.1,0.5,0.2    c0.1,0.1,0.2,0.3,0.2,0.5v4.6c0.3-0.5,0.6-0.9,1.1-1.2c0.5-0.3,1.1-0.4,1.7-0.4C68.5,82.9,69.2,83.1,69.7,83.5z M69.4,89.6    c0.4-0.6,0.7-1.4,0.7-2.4c0-1-0.2-1.8-0.7-2.3c-0.4-0.6-1.1-0.8-1.9-0.8c-0.8,0-1.4,0.3-1.9,0.8c-0.4,0.6-0.7,1.3-0.7,2.4    c0,1,0.2,1.8,0.7,2.4c0.4,0.6,1.1,0.8,1.9,0.8C68.3,90.5,69,90.2,69.4,89.6z"></path>		<path style="fill:#163B67;" d="M74,80.9c-0.2-0.2-0.3-0.4-0.3-0.6c0-0.3,0.1-0.5,0.3-0.6c0.2-0.2,0.4-0.2,0.7-0.2    c0.3,0,0.5,0.1,0.7,0.2c0.2,0.2,0.3,0.4,0.3,0.6c0,0.3-0.1,0.5-0.3,0.6c-0.2,0.2-0.4,0.2-0.7,0.2C74.4,81.1,74.2,81.1,74,80.9z     M74.2,91.4c-0.1-0.1-0.2-0.3-0.2-0.5v-7.3c0-0.2,0.1-0.4,0.2-0.5c0.1-0.1,0.3-0.2,0.5-0.2c0.2,0,0.4,0.1,0.5,0.2    c0.1,0.1,0.2,0.3,0.2,0.5v7.3c0,0.2-0.1,0.4-0.2,0.5c-0.1,0.1-0.3,0.2-0.5,0.2C74.5,91.6,74.3,91.5,74.2,91.4z"></path>		<path style="fill:#163B67;" d="M78.6,91.4c-0.1-0.1-0.2-0.3-0.2-0.5V80c0-0.2,0.1-0.4,0.2-0.5c0.1-0.1,0.3-0.2,0.5-0.2    c0.2,0,0.4,0.1,0.5,0.2c0.1,0.1,0.2,0.3,0.2,0.5v10.9c0,0.2-0.1,0.4-0.2,0.5c-0.1,0.1-0.3,0.2-0.5,0.2    C78.9,91.6,78.8,91.5,78.6,91.4z"></path>		<path style="fill:#163B67;" d="M82.9,80.9c-0.2-0.2-0.3-0.4-0.3-0.6c0-0.3,0.1-0.5,0.3-0.6c0.2-0.2,0.4-0.2,0.7-0.2    c0.3,0,0.5,0.1,0.7,0.2c0.2,0.2,0.3,0.4,0.3,0.6c0,0.3-0.1,0.5-0.3,0.6c-0.2,0.2-0.4,0.2-0.7,0.2C83.3,81.1,83,81.1,82.9,80.9z     M83,91.4c-0.1-0.1-0.2-0.3-0.2-0.5v-7.3c0-0.2,0.1-0.4,0.2-0.5c0.1-0.1,0.3-0.2,0.5-0.2c0.2,0,0.4,0.1,0.5,0.2    c0.1,0.1,0.2,0.3,0.2,0.5v7.3c0,0.2-0.1,0.4-0.2,0.5c-0.1,0.1-0.3,0.2-0.5,0.2C83.3,91.6,83.2,91.5,83,91.4z"></path>		<path style="fill:#163B67;" d="M94.1,89.7c0.1,0.1,0.1,0.2,0.1,0.4c0,0.3-0.2,0.6-0.6,0.8c-0.4,0.2-0.9,0.4-1.3,0.5    c-0.5,0.1-0.9,0.2-1.3,0.2c-1.3,0-2.3-0.4-3.1-1.2c-0.8-0.8-1.1-1.8-1.1-3.2c0-0.9,0.2-1.6,0.5-2.3c0.3-0.7,0.8-1.2,1.4-1.5    c0.6-0.4,1.3-0.6,2.1-0.6c1.1,0,2,0.4,2.6,1.1c0.6,0.7,1,1.7,1,2.9c0,0.2,0,0.4-0.1,0.5c-0.1,0.1-0.2,0.2-0.4,0.2h-5.5    c0.1,2,1,3,2.8,3c0.4,0,0.8-0.1,1.2-0.2c0.3-0.1,0.7-0.3,1-0.5c0.3-0.2,0.5-0.3,0.6-0.3C93.9,89.6,94,89.6,94.1,89.7z M89,84.7    c-0.4,0.5-0.7,1.1-0.8,1.9h4.9c0-0.8-0.2-1.5-0.6-2c-0.4-0.5-1-0.7-1.7-0.7C90,84,89.4,84.2,89,84.7z"></path>		<path style="fill:#163B67;" d="M101.6,83.5c0,0.2-0.1,0.3-0.2,0.4c-0.1,0.1-0.3,0.2-0.5,0.2l-0.5,0.1c-0.8,0.1-1.3,0.3-1.7,0.8    c-0.4,0.5-0.6,1-0.6,1.7v4.2c0,0.2-0.1,0.4-0.2,0.5c-0.1,0.1-0.3,0.2-0.5,0.2c-0.2,0-0.4-0.1-0.5-0.2c-0.1-0.1-0.2-0.3-0.2-0.5    v-7.3c0-0.2,0.1-0.4,0.2-0.5c0.1-0.1,0.3-0.2,0.5-0.2c0.2,0,0.3,0.1,0.5,0.2c0.1,0.1,0.2,0.3,0.2,0.5v1c0.2-0.5,0.6-0.9,1-1.2    c0.4-0.3,1-0.4,1.5-0.5l0.2,0C101.4,82.9,101.6,83.1,101.6,83.5z"></path>		<path style="fill:#163B67;" d="M114.3,83.5c0.6,0.4,1,0.9,1.3,1.5c0.3,0.7,0.5,1.4,0.5,2.3c0,0.9-0.2,1.6-0.5,2.3    c-0.3,0.6-0.7,1.2-1.3,1.5c-0.6,0.4-1.2,0.5-2,0.5c-0.7,0-1.2-0.1-1.7-0.4c-0.5-0.3-0.9-0.7-1.1-1.2v4c0,0.2-0.1,0.4-0.2,0.5    c-0.1,0.1-0.3,0.2-0.5,0.2c-0.2,0-0.4-0.1-0.5-0.2c-0.1-0.1-0.2-0.3-0.2-0.5V83.6c0-0.2,0.1-0.4,0.2-0.5c0.1-0.1,0.3-0.2,0.5-0.2    c0.2,0,0.4,0.1,0.5,0.2c0.1,0.1,0.2,0.3,0.2,0.5v0.9c0.3-0.5,0.6-0.9,1.1-1.2c0.5-0.3,1.1-0.4,1.7-0.4    C113,82.9,113.7,83.1,114.3,83.5z M113.9,89.7c0.4-0.6,0.7-1.3,0.7-2.3c0-1-0.2-1.8-0.7-2.4c-0.4-0.6-1.1-0.9-1.9-0.9    c-0.8,0-1.4,0.3-1.9,0.8c-0.4,0.6-0.7,1.3-0.7,2.4c0,1,0.2,1.8,0.7,2.4c0.4,0.6,1.1,0.8,1.9,0.8C112.9,90.5,113.5,90.2,113.9,89.7    z"></path>		<path style="fill:#163B67;" d="M119.9,91.1c-0.6-0.4-1.1-0.9-1.4-1.5c-0.3-0.7-0.5-1.4-0.5-2.3c0-0.9,0.2-1.6,0.5-2.3    c0.3-0.7,0.8-1.2,1.4-1.5c0.6-0.4,1.3-0.5,2.1-0.5c0.8,0,1.5,0.2,2.1,0.5c0.6,0.4,1.1,0.9,1.4,1.5c0.3,0.7,0.5,1.4,0.5,2.3    c0,0.9-0.2,1.6-0.5,2.3c-0.3,0.7-0.8,1.2-1.4,1.5c-0.6,0.4-1.3,0.5-2.1,0.5C121.2,91.6,120.5,91.5,119.9,91.1z M123.9,89.7    c0.4-0.5,0.7-1.3,0.7-2.4c0-1-0.2-1.8-0.7-2.4c-0.4-0.6-1.1-0.8-1.9-0.8c-0.8,0-1.4,0.3-1.9,0.8c-0.4,0.6-0.7,1.3-0.7,2.4    c0,1,0.2,1.8,0.7,2.4c0.4,0.6,1.1,0.8,1.9,0.8C122.8,90.5,123.5,90.2,123.9,89.7z"></path>		<path style="fill:#163B67;" d="M135.4,83.1c0.1,0.1,0.2,0.3,0.2,0.5v7.3c0,0.2-0.1,0.4-0.2,0.5c-0.1,0.1-0.3,0.2-0.5,0.2    c-0.2,0-0.4-0.1-0.5-0.2c-0.1-0.1-0.2-0.3-0.2-0.5v-0.9c-0.3,0.5-0.6,0.9-1.1,1.2c-0.5,0.3-1,0.4-1.6,0.4c-1,0-1.8-0.3-2.3-0.8    c-0.5-0.6-0.8-1.4-0.8-2.5v-4.7c0-0.2,0.1-0.4,0.2-0.5c0.1-0.1,0.3-0.2,0.5-0.2c0.2,0,0.4,0.1,0.5,0.2c0.1,0.1,0.2,0.3,0.2,0.5    v4.7c0,0.7,0.1,1.3,0.4,1.6c0.3,0.4,0.8,0.5,1.4,0.5c0.7,0,1.3-0.2,1.8-0.7c0.4-0.5,0.7-1.1,0.7-1.9v-4.2c0-0.2,0.1-0.4,0.2-0.5    c0.1-0.1,0.3-0.2,0.5-0.2C135.1,83,135.3,83,135.4,83.1z"></path>		<path style="fill:#163B67;" d="M143.5,83.5c0,0.2-0.1,0.3-0.2,0.4c-0.1,0.1-0.3,0.2-0.5,0.2l-0.5,0.1c-0.8,0.1-1.3,0.3-1.7,0.8    c-0.4,0.5-0.6,1-0.6,1.7v4.2c0,0.2-0.1,0.4-0.2,0.5c-0.1,0.1-0.3,0.2-0.5,0.2c-0.2,0-0.4-0.1-0.5-0.2c-0.1-0.1-0.2-0.3-0.2-0.5    v-7.3c0-0.2,0.1-0.4,0.2-0.5c0.1-0.1,0.3-0.2,0.5-0.2c0.2,0,0.3,0.1,0.5,0.2c0.1,0.1,0.2,0.3,0.2,0.5v1c0.2-0.5,0.6-0.9,1-1.2    c0.4-0.3,1-0.4,1.5-0.5l0.2,0C143.2,82.9,143.5,83.1,143.5,83.5z"></path>		<path style="fill:#163B67;" d="M156.6,83c0.2,0,0.3,0.1,0.5,0.2c0.1,0.1,0.2,0.3,0.2,0.4c0,0.1,0,0.2-0.1,0.3l-3.4,7.2    c-0.1,0.1-0.2,0.3-0.3,0.4c-0.1,0.1-0.3,0.1-0.4,0.1c-0.1,0-0.3,0-0.4-0.1c-0.1-0.1-0.2-0.2-0.3-0.4l-3.3-7.2    c0-0.1-0.1-0.2-0.1-0.3c0-0.2,0.1-0.3,0.2-0.4c0.2-0.1,0.3-0.2,0.5-0.2c0.1,0,0.2,0,0.3,0.1c0.1,0.1,0.2,0.2,0.2,0.3l2.9,6.5    l2.9-6.4C156.1,83.1,156.3,83,156.6,83z"></path>		<path style="fill:#163B67;" d="M160.6,91.1c-0.6-0.4-1.1-0.9-1.4-1.5c-0.3-0.7-0.5-1.4-0.5-2.3c0-0.9,0.2-1.6,0.5-2.3    c0.3-0.7,0.8-1.2,1.4-1.5c0.6-0.4,1.3-0.5,2.1-0.5c0.8,0,1.5,0.2,2.1,0.5c0.6,0.4,1.1,0.9,1.4,1.5c0.3,0.7,0.5,1.4,0.5,2.3    c0,0.9-0.2,1.6-0.5,2.3c-0.3,0.7-0.8,1.2-1.4,1.5c-0.6,0.4-1.3,0.5-2.1,0.5C161.9,91.6,161.2,91.5,160.6,91.1z M164.6,89.7    c0.4-0.5,0.7-1.3,0.7-2.4c0-1-0.2-1.8-0.7-2.4c-0.4-0.6-1.1-0.8-1.9-0.8c-0.8,0-1.4,0.3-1.9,0.8c-0.4,0.6-0.7,1.3-0.7,2.4    c0,1,0.2,1.8,0.7,2.4c0.4,0.6,1.1,0.8,1.9,0.8C163.5,90.5,164.2,90.2,164.6,89.7z"></path>		<path style="fill:#163B67;" d="M176.1,83.1c0.1,0.1,0.2,0.3,0.2,0.5v7.3c0,0.2-0.1,0.4-0.2,0.5c-0.1,0.1-0.3,0.2-0.5,0.2    c-0.2,0-0.4-0.1-0.5-0.2c-0.1-0.1-0.2-0.3-0.2-0.5v-0.9c-0.3,0.5-0.6,0.9-1.1,1.2c-0.5,0.3-1,0.4-1.6,0.4c-1,0-1.8-0.3-2.3-0.8    c-0.5-0.6-0.8-1.4-0.8-2.5v-4.7c0-0.2,0.1-0.4,0.2-0.5c0.1-0.1,0.3-0.2,0.5-0.2c0.2,0,0.4,0.1,0.5,0.2c0.1,0.1,0.2,0.3,0.2,0.5    v4.7c0,0.7,0.1,1.3,0.4,1.6c0.3,0.4,0.8,0.5,1.4,0.5c0.7,0,1.3-0.2,1.8-0.7c0.4-0.5,0.7-1.1,0.7-1.9v-4.2c0-0.2,0.1-0.4,0.2-0.5    c0.1-0.1,0.3-0.2,0.5-0.2C175.8,83,176,83,176.1,83.1z"></path>		<path style="fill:#163B67;" d="M180.6,91.5c-0.5-0.1-0.9-0.3-1.3-0.5c-0.2-0.1-0.4-0.3-0.4-0.4s-0.1-0.3-0.1-0.4    c0-0.1,0-0.3,0.1-0.4c0.1-0.1,0.2-0.1,0.3-0.1s0.3,0.1,0.6,0.3c0.3,0.2,0.7,0.4,1,0.5c0.3,0.1,0.8,0.2,1.3,0.2    c0.6,0,1.1-0.1,1.4-0.3c0.3-0.2,0.5-0.5,0.5-0.9c0-0.3-0.1-0.5-0.2-0.6c-0.1-0.2-0.3-0.3-0.7-0.4c-0.3-0.1-0.8-0.2-1.4-0.4    c-1-0.2-1.7-0.5-2.2-0.9c-0.4-0.4-0.7-0.9-0.7-1.5c0-0.5,0.1-0.9,0.4-1.3c0.3-0.4,0.7-0.7,1.1-0.9c0.5-0.2,1-0.3,1.7-0.3    c0.4,0,0.9,0.1,1.3,0.2c0.4,0.1,0.8,0.3,1.1,0.5c0.4,0.3,0.6,0.6,0.6,0.9c0,0.1,0,0.3-0.1,0.4c-0.1,0.1-0.2,0.2-0.3,0.2    c-0.1,0-0.3-0.1-0.6-0.3c-0.3-0.2-0.6-0.4-0.9-0.5c-0.3-0.1-0.6-0.2-1.1-0.2c-0.5,0-1,0.1-1.3,0.4c-0.3,0.2-0.5,0.6-0.5,1    c0,0.3,0.1,0.5,0.2,0.6c0.1,0.2,0.3,0.3,0.6,0.4c0.3,0.1,0.7,0.2,1.2,0.4c0.8,0.2,1.4,0.4,1.8,0.6c0.4,0.2,0.7,0.5,0.9,0.8    c0.2,0.3,0.3,0.7,0.3,1.1c0,0.7-0.3,1.3-0.9,1.7c-0.6,0.4-1.4,0.7-2.4,0.7C181.6,91.6,181.1,91.6,180.6,91.5z"></path>		<path style="fill:#163B67;" d="M189.3,90c0.2,0.2,0.3,0.6,0.3,1c0,0.9-0.3,1.7-0.9,2.3c-0.1,0.1-0.2,0.2-0.4,0.2    c-0.1,0-0.2,0-0.3-0.1c-0.1-0.1-0.1-0.2-0.1-0.3c0-0.1,0-0.2,0.1-0.3c0.3-0.3,0.5-0.7,0.6-1.2c-0.3,0-0.5-0.1-0.6-0.3    c-0.2-0.2-0.2-0.4-0.2-0.6c0-0.3,0.1-0.5,0.3-0.7c0.2-0.2,0.4-0.3,0.7-0.3C188.9,89.7,189.1,89.8,189.3,90z"></path>		<path style="fill:#163B67;" d="M204.4,86.2v4.7c0,0.2-0.1,0.4-0.2,0.5c-0.1,0.1-0.3,0.2-0.5,0.2c-0.2,0-0.4-0.1-0.5-0.2    c-0.1-0.1-0.2-0.3-0.2-0.5v-4.6c0-0.8-0.2-1.3-0.5-1.7c-0.3-0.4-0.8-0.5-1.5-0.5c-0.8,0-1.4,0.2-1.8,0.7c-0.5,0.5-0.7,1.1-0.7,1.9    v4.2c0,0.2-0.1,0.4-0.2,0.5c-0.1,0.1-0.3,0.2-0.5,0.2c-0.2,0-0.4-0.1-0.5-0.2c-0.1-0.1-0.2-0.3-0.2-0.5v-7.3    c0-0.2,0.1-0.4,0.2-0.5c0.1-0.1,0.3-0.2,0.5-0.2c0.2,0,0.4,0.1,0.5,0.2c0.1,0.1,0.2,0.3,0.2,0.5v0.9c0.3-0.5,0.7-0.9,1.2-1.2    c0.5-0.3,1.1-0.4,1.7-0.4C203.4,82.9,204.4,84,204.4,86.2z"></path>		<path style="fill:#163B67;" d="M214,86.2v4.7c0,0.2-0.1,0.4-0.2,0.5c-0.1,0.1-0.3,0.2-0.5,0.2c-0.2,0-0.4-0.1-0.5-0.2    c-0.1-0.1-0.2-0.3-0.2-0.5v-0.8c-0.2,0.5-0.6,0.9-1,1.1c-0.4,0.3-1,0.4-1.6,0.4c-0.5,0-1-0.1-1.5-0.3c-0.5-0.2-0.8-0.5-1.1-0.9    c-0.3-0.4-0.4-0.8-0.4-1.3c0-0.6,0.2-1.1,0.5-1.5c0.3-0.4,0.8-0.6,1.6-0.8c0.7-0.2,1.8-0.2,3.1-0.2h0.4v-0.6    c0-0.7-0.1-1.2-0.4-1.5c-0.3-0.3-0.7-0.5-1.4-0.5c-0.8,0-1.6,0.2-2.4,0.6c-0.3,0.2-0.5,0.3-0.7,0.3c-0.1,0-0.3-0.1-0.3-0.2    c-0.1-0.1-0.1-0.2-0.1-0.4c0-0.2,0-0.3,0.1-0.4c0.1-0.1,0.3-0.2,0.5-0.4c0.4-0.2,0.9-0.4,1.4-0.5c0.5-0.1,1-0.2,1.5-0.2    C212.9,82.9,214,84,214,86.2z M211.9,89.8c0.4-0.5,0.7-1.1,0.7-1.8v-0.5h-0.3c-1,0-1.8,0-2.3,0.1c-0.5,0.1-0.9,0.2-1.1,0.4    c-0.2,0.2-0.3,0.5-0.3,0.9c0,0.4,0.2,0.8,0.5,1.1c0.3,0.3,0.7,0.4,1.2,0.4C210.9,90.5,211.5,90.3,211.9,89.8z"></path>		<path style="fill:#163B67;" d="M221.4,91.1c0,0.2-0.1,0.3-0.2,0.4c-0.1,0.1-0.4,0.1-0.6,0.1l-0.5,0c-0.9-0.1-1.6-0.3-2-0.8    c-0.4-0.5-0.7-1.2-0.7-2.2v-4.3h-1.2c-0.2,0-0.3,0-0.5-0.1c-0.1-0.1-0.2-0.2-0.2-0.4c0-0.2,0.1-0.3,0.2-0.4    c0.1-0.1,0.3-0.2,0.5-0.2h1.2v-1.9c0-0.2,0.1-0.4,0.2-0.5c0.1-0.1,0.3-0.2,0.5-0.2c0.2,0,0.4,0.1,0.5,0.2c0.1,0.1,0.2,0.3,0.2,0.5    v1.9h1.9c0.2,0,0.3,0.1,0.4,0.2c0.1,0.1,0.2,0.2,0.2,0.4c0,0.2-0.1,0.3-0.2,0.4c-0.1,0.1-0.3,0.1-0.4,0.1h-1.9v4.4    c0,0.6,0.1,1.1,0.4,1.4c0.3,0.3,0.6,0.4,1.2,0.5l0.5,0C221.2,90.5,221.4,90.7,221.4,91.1z"></path>		<path style="fill:#163B67;" d="M230.1,83.1c0.1,0.1,0.2,0.3,0.2,0.5v7.3c0,0.2-0.1,0.4-0.2,0.5c-0.1,0.1-0.3,0.2-0.5,0.2    c-0.2,0-0.4-0.1-0.5-0.2c-0.1-0.1-0.2-0.3-0.2-0.5v-0.9c-0.3,0.5-0.6,0.9-1.1,1.2c-0.5,0.3-1,0.4-1.6,0.4c-1,0-1.8-0.3-2.3-0.8    c-0.5-0.6-0.8-1.4-0.8-2.5v-4.7c0-0.2,0.1-0.4,0.2-0.5c0.1-0.1,0.3-0.2,0.5-0.2c0.2,0,0.4,0.1,0.5,0.2c0.1,0.1,0.2,0.3,0.2,0.5    v4.7c0,0.7,0.1,1.3,0.4,1.6c0.3,0.4,0.8,0.5,1.4,0.5c0.7,0,1.3-0.2,1.8-0.7c0.4-0.5,0.7-1.1,0.7-1.9v-4.2c0-0.2,0.1-0.4,0.2-0.5    c0.1-0.1,0.3-0.2,0.5-0.2C229.8,83,230,83,230.1,83.1z"></path>		<path style="fill:#163B67;" d="M238.1,83.5c0,0.2-0.1,0.3-0.2,0.4c-0.1,0.1-0.3,0.2-0.5,0.2l-0.5,0.1c-0.8,0.1-1.3,0.3-1.7,0.8    c-0.4,0.5-0.6,1-0.6,1.7v4.2c0,0.2-0.1,0.4-0.2,0.5c-0.1,0.1-0.3,0.2-0.5,0.2c-0.2,0-0.4-0.1-0.5-0.2c-0.1-0.1-0.2-0.3-0.2-0.5    v-7.3c0-0.2,0.1-0.4,0.2-0.5c0.1-0.1,0.3-0.2,0.5-0.2c0.2,0,0.3,0.1,0.5,0.2c0.1,0.1,0.2,0.3,0.2,0.5v1c0.2-0.5,0.6-0.9,1-1.2    c0.4-0.3,1-0.4,1.5-0.5l0.2,0C237.9,82.9,238.1,83.1,238.1,83.5z"></path>		<path style="fill:#163B67;" d="M246.6,89.7c0.1,0.1,0.1,0.2,0.1,0.4c0,0.3-0.2,0.6-0.6,0.8c-0.4,0.2-0.9,0.4-1.3,0.5    c-0.5,0.1-0.9,0.2-1.3,0.2c-1.3,0-2.3-0.4-3.1-1.2c-0.8-0.8-1.1-1.8-1.1-3.2c0-0.9,0.2-1.6,0.5-2.3c0.3-0.7,0.8-1.2,1.4-1.5    c0.6-0.4,1.3-0.6,2.1-0.6c1.1,0,2,0.4,2.6,1.1c0.6,0.7,1,1.7,1,2.9c0,0.2,0,0.4-0.1,0.5c-0.1,0.1-0.2,0.2-0.4,0.2h-5.5    c0.1,2,1,3,2.8,3c0.4,0,0.8-0.1,1.2-0.2c0.3-0.1,0.7-0.3,1-0.5c0.3-0.2,0.5-0.3,0.6-0.3C246.4,89.6,246.5,89.6,246.6,89.7z     M241.5,84.7c-0.4,0.5-0.7,1.1-0.8,1.9h4.9c0-0.8-0.2-1.5-0.6-2c-0.4-0.5-1-0.7-1.7-0.7C242.5,84,241.9,84.2,241.5,84.7z"></path>		<path style="fill:#163B67;" d="M249.5,91.4c-0.1-0.1-0.2-0.3-0.2-0.5V80c0-0.2,0.1-0.4,0.2-0.5c0.1-0.1,0.3-0.2,0.5-0.2    c0.2,0,0.4,0.1,0.5,0.2c0.1,0.1,0.2,0.3,0.2,0.5v10.9c0,0.2-0.1,0.4-0.2,0.5c-0.1,0.1-0.3,0.2-0.5,0.2    C249.8,91.6,249.6,91.5,249.5,91.4z"></path>		<path style="fill:#163B67;" d="M253.9,91.4c-0.1-0.1-0.2-0.3-0.2-0.5V80c0-0.2,0.1-0.4,0.2-0.5c0.1-0.1,0.3-0.2,0.5-0.2    c0.2,0,0.4,0.1,0.5,0.2c0.1,0.1,0.2,0.3,0.2,0.5v10.9c0,0.2-0.1,0.4-0.2,0.5c-0.1,0.1-0.3,0.2-0.5,0.2    C254.2,91.6,254,91.5,253.9,91.4z"></path>		<path style="fill:#163B67;" d="M264.9,89.7c0.1,0.1,0.1,0.2,0.1,0.4c0,0.3-0.2,0.6-0.6,0.8c-0.4,0.2-0.9,0.4-1.3,0.5    c-0.5,0.1-0.9,0.2-1.3,0.2c-1.3,0-2.3-0.4-3.1-1.2c-0.8-0.8-1.1-1.8-1.1-3.2c0-0.9,0.2-1.6,0.5-2.3c0.3-0.7,0.8-1.2,1.4-1.5    c0.6-0.4,1.3-0.6,2.1-0.6c1.1,0,2,0.4,2.6,1.1c0.6,0.7,1,1.7,1,2.9c0,0.2,0,0.4-0.1,0.5c-0.1,0.1-0.2,0.2-0.4,0.2H259    c0.1,2,1,3,2.8,3c0.4,0,0.8-0.1,1.2-0.2c0.3-0.1,0.7-0.3,1-0.5c0.3-0.2,0.5-0.3,0.6-0.3C264.7,89.6,264.8,89.6,264.9,89.7z     M259.8,84.7c-0.4,0.5-0.7,1.1-0.8,1.9h4.9c0-0.8-0.2-1.5-0.6-2c-0.4-0.5-1-0.7-1.7-0.7C260.8,84,260.2,84.2,259.8,84.7z"></path>		<path style="fill:#163B67;" d="M279.7,86.2v4.7c0,0.2-0.1,0.4-0.2,0.5c-0.1,0.1-0.3,0.2-0.5,0.2c-0.2,0-0.4-0.1-0.5-0.2    c-0.1-0.1-0.2-0.3-0.2-0.5v-4.6c0-0.8-0.1-1.3-0.4-1.7c-0.3-0.3-0.7-0.5-1.3-0.5c-0.7,0-1.3,0.2-1.7,0.7c-0.4,0.5-0.6,1.1-0.6,1.9    v4.2c0,0.2-0.1,0.4-0.2,0.5c-0.1,0.1-0.3,0.2-0.5,0.2s-0.4-0.1-0.5-0.2c-0.1-0.1-0.2-0.3-0.2-0.5v-4.6c0-0.8-0.1-1.3-0.4-1.7    c-0.3-0.3-0.7-0.5-1.3-0.5c-0.7,0-1.2,0.2-1.6,0.7c-0.4,0.5-0.6,1.1-0.6,1.9v4.2c0,0.2-0.1,0.4-0.2,0.5c-0.1,0.1-0.3,0.2-0.5,0.2    c-0.2,0-0.4-0.1-0.5-0.2c-0.1-0.1-0.2-0.3-0.2-0.5v-7.3c0-0.2,0.1-0.4,0.2-0.5c0.1-0.1,0.3-0.2,0.5-0.2c0.2,0,0.4,0.1,0.5,0.2    c0.1,0.1,0.2,0.3,0.2,0.5v0.8c0.3-0.5,0.6-0.9,1.1-1.1c0.4-0.3,1-0.4,1.6-0.4c1.3,0,2.2,0.6,2.6,1.7c0.2-0.5,0.6-0.9,1.1-1.2    c0.5-0.3,1.1-0.4,1.7-0.4C278.8,82.9,279.7,84,279.7,86.2z"></path>		<path style="fill:#163B67;" d="M289.5,89.7c0.1,0.1,0.1,0.2,0.1,0.4c0,0.3-0.2,0.6-0.6,0.8c-0.4,0.2-0.9,0.4-1.3,0.5    c-0.5,0.1-0.9,0.2-1.3,0.2c-1.3,0-2.3-0.4-3.1-1.2c-0.8-0.8-1.1-1.8-1.1-3.2c0-0.9,0.2-1.6,0.5-2.3c0.3-0.7,0.8-1.2,1.4-1.5    c0.6-0.4,1.3-0.6,2.1-0.6c1.1,0,2,0.4,2.6,1.1c0.6,0.7,1,1.7,1,2.9c0,0.2,0,0.4-0.1,0.5c-0.1,0.1-0.2,0.2-0.4,0.2h-5.5    c0.1,2,1,3,2.8,3c0.4,0,0.8-0.1,1.2-0.2c0.3-0.1,0.7-0.3,1-0.5c0.3-0.2,0.5-0.3,0.6-0.3C289.3,89.6,289.4,89.6,289.5,89.7z     M284.4,84.7c-0.4,0.5-0.7,1.1-0.8,1.9h4.9c0-0.8-0.2-1.5-0.6-2c-0.4-0.5-1-0.7-1.7-0.7C285.4,84,284.8,84.2,284.4,84.7z"></path>		<path style="fill:#163B67;" d="M299.4,86.2v4.7c0,0.2-0.1,0.4-0.2,0.5c-0.1,0.1-0.3,0.2-0.5,0.2c-0.2,0-0.4-0.1-0.5-0.2    c-0.1-0.1-0.2-0.3-0.2-0.5v-4.6c0-0.8-0.2-1.3-0.5-1.7c-0.3-0.4-0.8-0.5-1.5-0.5c-0.8,0-1.4,0.2-1.8,0.7c-0.5,0.5-0.7,1.1-0.7,1.9    v4.2c0,0.2-0.1,0.4-0.2,0.5c-0.1,0.1-0.3,0.2-0.5,0.2c-0.2,0-0.4-0.1-0.5-0.2c-0.1-0.1-0.2-0.3-0.2-0.5v-7.3    c0-0.2,0.1-0.4,0.2-0.5c0.1-0.1,0.3-0.2,0.5-0.2c0.2,0,0.4,0.1,0.5,0.2c0.1,0.1,0.2,0.3,0.2,0.5v0.9c0.3-0.5,0.7-0.9,1.2-1.2    c0.5-0.3,1.1-0.4,1.7-0.4C298.4,82.9,299.4,84,299.4,86.2z"></path>		<path style="fill:#163B67;" d="M306.8,91.1c0,0.2-0.1,0.3-0.2,0.4c-0.1,0.1-0.4,0.1-0.6,0.1l-0.5,0c-0.9-0.1-1.6-0.3-2-0.8    c-0.4-0.5-0.7-1.2-0.7-2.2v-4.3h-1.2c-0.2,0-0.3,0-0.5-0.1c-0.1-0.1-0.2-0.2-0.2-0.4c0-0.2,0.1-0.3,0.2-0.4    c0.1-0.1,0.3-0.2,0.5-0.2h1.2v-1.9c0-0.2,0.1-0.4,0.2-0.5c0.1-0.1,0.3-0.2,0.5-0.2c0.2,0,0.4,0.1,0.5,0.2c0.1,0.1,0.2,0.3,0.2,0.5    v1.9h1.9c0.2,0,0.3,0.1,0.4,0.2c0.1,0.1,0.2,0.2,0.2,0.4c0,0.2-0.1,0.3-0.2,0.4c-0.1,0.1-0.3,0.1-0.4,0.1h-1.9v4.4    c0,0.6,0.1,1.1,0.4,1.4c0.3,0.3,0.6,0.4,1.2,0.5l0.5,0C306.6,90.5,306.8,90.7,306.8,91.1z"></path>		<path style="fill:#163B67;" d="M313.5,91.3c-0.2-0.2-0.3-0.4-0.3-0.7c0-0.3,0.1-0.5,0.3-0.7c0.2-0.2,0.4-0.3,0.7-0.3    c0.3,0,0.5,0.1,0.7,0.3c0.2,0.2,0.3,0.4,0.3,0.7c0,0.3-0.1,0.5-0.3,0.7c-0.2,0.2-0.4,0.3-0.7,0.3    C313.9,91.6,313.7,91.5,313.5,91.3z M313.9,88.3c-0.1-0.1-0.1-0.2-0.1-0.4l-0.4-7.8c0-0.3,0-0.5,0.2-0.6c0.2-0.2,0.4-0.2,0.6-0.2    c0.3,0,0.5,0.1,0.6,0.2c0.2,0.2,0.2,0.4,0.2,0.6l-0.4,7.8c0,0.2-0.1,0.3-0.1,0.4c-0.1,0.1-0.2,0.1-0.3,0.1    C314.1,88.4,314,88.4,313.9,88.3z"></path>	</g>	<g>		<g>			<path style="fill:#E5114E;" d="M112.8,66.5V63c-0.9,1.1-2.1,2.1-3.6,2.8c-1.5,0.8-3.2,1.2-5.3,1.2c-1.3,0-2.6-0.2-3.7-0.6     c-1.2-0.4-2.2-0.9-3.1-1.6c-0.9-0.7-1.6-1.6-2.1-2.7c-0.5-1.1-0.8-2.3-0.8-3.7v-0.1c0-1.5,0.3-2.9,0.8-4c0.6-1.1,1.3-2.1,2.3-2.8     c1-0.8,2.2-1.3,3.5-1.7c1.4-0.4,2.9-0.6,4.4-0.6c1.7,0,3.1,0.1,4.2,0.3c1.2,0.2,2.3,0.5,3.4,0.8V50c0-1.9-0.6-3.4-1.7-4.4     c-1.2-1-2.8-1.5-5-1.5c-1.6,0-2.9,0.2-4.2,0.5c-1.2,0.3-2.4,0.7-3.7,1.3l-1.7-5.1c1.5-0.7,3.1-1.3,4.7-1.7     c1.6-0.4,3.5-0.6,5.8-0.6c4.1,0,7.1,1,9.1,3.1c2,2,3,4.9,3,8.6v16.4H112.8z M113,54.9c-0.8-0.3-1.7-0.6-2.8-0.8     c-1.1-0.2-2.2-0.3-3.5-0.3c-2,0-3.5,0.4-4.6,1.2c-1.1,0.8-1.7,1.8-1.7,3.1v0.1c0,1.3,0.5,2.3,1.5,3c1,0.7,2.3,1,3.8,1     c1,0,2-0.1,2.9-0.4c0.9-0.3,1.7-0.7,2.3-1.2c0.7-0.5,1.2-1.1,1.5-1.8c0.4-0.7,0.5-1.5,0.5-2.4V54.9z"></path>			<path style="fill:#E5114E;" d="M139.3,67.1c-2,0-3.9-0.4-5.7-1.1c-1.7-0.7-3.2-1.8-4.5-3.1c-1.3-1.3-2.3-2.8-3-4.6     c-0.7-1.7-1.1-3.6-1.1-5.6v-0.1c0-2,0.4-3.8,1.1-5.6c0.7-1.8,1.7-3.3,3-4.6c1.3-1.3,2.8-2.3,4.5-3.1c1.8-0.8,3.7-1.2,5.7-1.2     c2.6,0,4.8,0.4,6.5,1.3c1.7,0.9,3.2,2,4.5,3.5l-3.9,4.2c-1-1-2-1.8-3.1-2.5c-1.1-0.6-2.4-1-4-1c-1.1,0-2.2,0.2-3.2,0.7     c-1,0.5-1.8,1.1-2.5,1.9c-0.7,0.8-1.2,1.7-1.6,2.8c-0.4,1.1-0.6,2.2-0.6,3.4v0.1c0,1.2,0.2,2.4,0.6,3.5c0.4,1.1,1,2,1.7,2.8     c0.7,0.8,1.6,1.4,2.6,1.9c1,0.5,2.1,0.7,3.3,0.7c1.5,0,2.8-0.3,3.9-1c1.1-0.6,2.2-1.5,3.2-2.5l3.8,3.8c-1.4,1.5-2.9,2.8-4.6,3.7     C144.2,66.6,142,67.1,139.3,67.1z"></path>			<path style="fill:#E5114E;" d="M169,67.1c-2,0-3.9-0.4-5.7-1.1c-1.7-0.7-3.2-1.8-4.5-3.1c-1.3-1.3-2.3-2.8-3-4.6     c-0.7-1.7-1.1-3.6-1.1-5.6v-0.1c0-2,0.4-3.8,1.1-5.6c0.7-1.8,1.7-3.3,3-4.6c1.3-1.3,2.8-2.3,4.5-3.1c1.8-0.8,3.6-1.2,5.7-1.2     c2.6,0,4.8,0.4,6.5,1.3c1.7,0.9,3.2,2,4.5,3.5l-3.9,4.2c-1-1-2-1.8-3.1-2.5c-1.1-0.6-2.4-1-4-1c-1.1,0-2.2,0.2-3.2,0.7     c-1,0.5-1.8,1.1-2.5,1.9c-0.7,0.8-1.2,1.7-1.6,2.8c-0.4,1.1-0.6,2.2-0.6,3.4v0.1c0,1.2,0.2,2.4,0.6,3.5c0.4,1.1,1,2,1.7,2.8     c0.7,0.8,1.6,1.4,2.6,1.9c1,0.5,2.1,0.7,3.3,0.7c1.5,0,2.8-0.3,3.9-1c1.1-0.6,2.2-1.5,3.2-2.5l3.8,3.8c-1.4,1.5-2.9,2.8-4.6,3.7     S171.7,67.1,169,67.1z"></path>			<path style="fill:#E5114E;" d="M198.5,67.1c-2,0-3.8-0.3-5.5-1c-1.7-0.7-3.2-1.7-4.5-2.9c-1.3-1.3-2.3-2.8-3-4.5     c-0.7-1.8-1.1-3.7-1.1-5.8v-0.1c0-2,0.3-3.9,1-5.6c0.7-1.7,1.6-3.3,2.8-4.6c1.2-1.3,2.6-2.3,4.2-3.1c1.6-0.7,3.4-1.1,5.4-1.1     c2.2,0,4.1,0.4,5.7,1.2c1.6,0.8,3,1.9,4.1,3.2c1.1,1.4,1.9,2.9,2.5,4.7c0.6,1.8,0.8,3.7,0.8,5.7c0,0.3,0,0.6,0,0.9     c0,0.3,0,0.6-0.1,0.9h-20.2c0.3,2.3,1.2,4,2.7,5.2c1.4,1.2,3.2,1.8,5.2,1.8c1.6,0,2.9-0.3,4.1-0.8c1.1-0.6,2.3-1.4,3.4-2.5     l3.7,3.3c-1.3,1.6-2.9,2.8-4.7,3.8C203.2,66.6,201.1,67.1,198.5,67.1z M204.8,50.7c-0.1-1-0.3-2-0.7-2.9     c-0.3-0.9-0.8-1.7-1.4-2.3c-0.6-0.6-1.3-1.2-2.1-1.5c-0.8-0.4-1.7-0.6-2.8-0.6c-1.9,0-3.5,0.7-4.8,2c-1.3,1.3-2,3.1-2.3,5.3     H204.8z"></path>			<path style="fill:#E5114E;" d="M226.8,67c-2,0-4-0.4-6-1.1c-2-0.7-3.9-1.7-5.6-3.1l2.8-4.3c1.5,1.1,3,2,4.6,2.5     c1.5,0.6,3,0.9,4.4,0.9c1.4,0,2.4-0.3,3.1-0.8c0.7-0.5,1.1-1.3,1.1-2.2v-0.1c0-0.5-0.2-1-0.5-1.4c-0.3-0.4-0.8-0.7-1.4-1     s-1.2-0.5-2-0.8c-0.7-0.2-1.5-0.5-2.3-0.7c-1-0.3-2-0.6-3-1c-1-0.4-1.9-0.9-2.8-1.5c-0.8-0.6-1.5-1.4-2-2.3     c-0.5-0.9-0.8-2-0.8-3.3v-0.1c0-1.3,0.3-2.5,0.8-3.5c0.5-1,1.2-1.9,2.1-2.7c0.9-0.7,1.9-1.3,3.1-1.7c1.2-0.4,2.5-0.6,3.8-0.6     c1.7,0,3.5,0.3,5.3,0.8c1.8,0.6,3.4,1.3,4.8,2.3l-2.5,4.5c-1.3-0.8-2.7-1.4-4-1.9c-1.4-0.5-2.6-0.7-3.7-0.7     c-1.2,0-2.2,0.3-2.8,0.8c-0.7,0.5-1,1.2-1,2v0.1c0,0.5,0.2,0.9,0.5,1.3c0.3,0.4,0.8,0.7,1.4,1s1.2,0.6,2,0.8     c0.7,0.3,1.5,0.5,2.3,0.8c1,0.3,2,0.7,3,1.1c1,0.4,1.9,0.9,2.7,1.5c0.8,0.6,1.5,1.3,2,2.2c0.5,0.9,0.8,1.9,0.8,3.2v0.1     c0,1.5-0.3,2.7-0.8,3.8c-0.5,1.1-1.2,2-2.2,2.7c-0.9,0.7-2,1.3-3.3,1.6C229.5,66.8,228.2,67,226.8,67z"></path>			<path style="fill:#E5114E;" d="M252.8,67c-2,0-4-0.4-6-1.1c-2-0.7-3.9-1.7-5.6-3.1l2.8-4.3c1.5,1.1,3,2,4.6,2.5     c1.5,0.6,3,0.9,4.4,0.9c1.4,0,2.4-0.3,3.1-0.8c0.7-0.5,1.1-1.3,1.1-2.2v-0.1c0-0.5-0.2-1-0.5-1.4c-0.3-0.4-0.8-0.7-1.4-1     s-1.2-0.5-2-0.8c-0.7-0.2-1.5-0.5-2.3-0.7c-1-0.3-2-0.6-3-1c-1-0.4-1.9-0.9-2.8-1.5c-0.8-0.6-1.5-1.4-2-2.3     c-0.5-0.9-0.8-2-0.8-3.3v-0.1c0-1.3,0.3-2.5,0.8-3.5c0.5-1,1.2-1.9,2.1-2.7c0.9-0.7,1.9-1.3,3.1-1.7c1.2-0.4,2.5-0.6,3.8-0.6     c1.7,0,3.5,0.3,5.3,0.8c1.8,0.6,3.4,1.3,4.8,2.3l-2.5,4.5c-1.3-0.8-2.7-1.4-4-1.9c-1.4-0.5-2.6-0.7-3.7-0.7     c-1.2,0-2.2,0.3-2.8,0.8c-0.7,0.5-1,1.2-1,2v0.1c0,0.5,0.2,0.9,0.5,1.3c0.3,0.4,0.8,0.7,1.4,1s1.2,0.6,2,0.8     c0.7,0.3,1.5,0.5,2.3,0.8c1,0.3,2,0.7,3,1.1c1,0.4,1.9,0.9,2.7,1.5c0.8,0.6,1.5,1.3,2,2.2c0.5,0.9,0.8,1.9,0.8,3.2v0.1     c0,1.5-0.3,2.7-0.8,3.8c-0.5,1.1-1.2,2-2.2,2.7c-0.9,0.7-2,1.3-3.3,1.6C255.5,66.8,254.2,67,252.8,67z"></path>		</g>		<g>			<path style="fill:#163B67;" d="M28.3,49c-1-0.9-2.2-1.6-3.7-2.2c-1.5-0.6-3.2-1.1-5.1-1.6c-1.7-0.4-3.2-0.8-4.3-1.2     c-1.1-0.4-2-0.8-2.7-1.2c-0.6-0.4-1.1-0.9-1.3-1.5c-0.2-0.5-0.4-1.2-0.4-1.9v-0.1c0-1.2,0.5-2.2,1.6-3.1c1-0.8,2.5-1.3,4.4-1.3     c1.7,0,3.3,0.3,4.9,1c1.6,0.6,3.3,1.6,4.9,2.8l0,0l3.4-4.9l0,0l0,0c-1.9-1.5-3.9-2.7-6-3.4c-2.1-0.8-4.6-1.2-7.2-1.2     c-1.8,0-3.5,0.3-5,0.8c-1.5,0.5-2.8,1.3-3.9,2.2c-1.1,0.9-1.9,2.1-2.6,3.4c-0.6,1.3-0.9,2.8-0.9,4.3V40c0,1.7,0.3,3.1,0.8,4.3     c0.5,1.2,1.3,2.2,2.4,3c1,0.8,2.3,1.5,3.8,2.1c1.5,0.6,3.3,1.1,5.2,1.5c1.7,0.4,3.1,0.8,4.1,1.2c1.1,0.4,1.9,0.8,2.5,1.3     c0.6,0.4,1,0.9,1.2,1.4c0.2,0.5,0.3,1.1,0.3,1.8v0.1c0,1.4-0.6,2.5-1.7,3.3c-1.2,0.8-2.7,1.3-4.7,1.3c-2.3,0-4.3-0.4-6.1-1.2     c-1.8-0.8-3.6-2-5.4-3.5l0,0l-3.9,4.6l0,0c2.2,2,4.6,3.5,7.1,4.4c2.6,1,5.3,1.4,8.1,1.4c1.9,0,3.7-0.2,5.3-0.7     c1.6-0.5,3-1.2,4.1-2.1c1.1-0.9,2-2.1,2.7-3.5c0.6-1.4,1-2.9,1-4.6v-0.1c0-1.5-0.3-2.8-0.8-4C30,50.8,29.3,49.8,28.3,49z"></path>			<path style="fill:#163B67;" d="M67.8,35.2c-1.7-1.6-3.8-2.9-6.1-3.9c-2.4-0.9-5-1.4-7.8-1.4H40.2v36.7h13.6     c2.8,0,5.5-0.5,7.8-1.4c2.4-0.9,4.4-2.2,6.1-3.9c1.7-1.6,3.1-3.6,4-5.8c0.9-2.2,1.4-4.7,1.4-7.2v-0.1c0-2.6-0.5-5-1.4-7.2     C70.8,38.8,69.5,36.9,67.8,35.2z M66.4,48.3v0.1c0,1.8-0.3,3.4-0.9,5c-0.6,1.5-1.5,2.8-2.5,3.9c-1.1,1.1-2.4,2-4,2.6     c-1.5,0.6-3.3,0.9-5.2,0.9h-7.2v-25h7.2c1.9,0,3.6,0.3,5.2,0.9c1.6,0.6,2.9,1.5,4,2.6c1.1,1.1,1.9,2.4,2.5,4     C66.1,44.9,66.4,46.6,66.4,48.3z"></path>			<path style="fill:#163B67;" d="M93.9,19.1L93.9,19.1l-4.5,1.4l0,0l0,0c-0.4,3.7-1.3,7-2.8,9.7c-1.2,2.2-2.7,4.1-4.6,5.7     c-1.7,1.4-3.2,2.2-4.3,2.6c-1.1,0.5-1.9,0.7-1.9,0.7l0,0l1.8,4.5l0,0l0,0c4-1.3,7.4-3.5,10-6.3c2.1-2.3,3.7-5,4.8-8.2     c1-2.8,1.3-5.4,1.5-7.1C94,20.3,93.9,19.1,93.9,19.1z"></path>		</g>		<g>			<path style="fill:#E5114E;" d="M314,15.3L293,3.1l-22,12.9v24.7l21.5,12.7l22-12.7l-0.1-6.6c0,0,0.2-0.6-1.6-0.7s-10.5,0-10.5,0     l-0.1-14.8c0,0,0.2-1.4-2-1.4c-2.2,0.1-2.1,1.2-2.1,1.2l0.1,17c0,0-0.1,2.1,1.5,2.1c1.6,0,10.2-0.1,10.2-0.1s1.7,0.4,0.3,1.4     c-1.4,0.9-17.6,10.1-17.6,10.1l-17.9-10.2V17.8l17.8-10.4l19.1,11.2c0,0,2.1,0.4,2.5-0.6C314.7,17.1,314.6,16.9,314,15.3z"></path>			<path style="fill:#E5114E;" d="M286.1,17.2c1.3,0.1,1.4,1.2,1.4,1.2l6.6,16.8c0,0,0.6,1.4-1,2c-1.6,0.6-2.2-1.1-2.2-1.1l-1.5-3     l-7.9,0.1l-1.6,3c0,0-0.7,1.6-2.2,0.9c-1.4-0.6-0.8-2.4-0.8-2.4l7.6-16.3C284.6,18.4,284.8,17.1,286.1,17.2z M285.2,24.7     l-1.7,4.1c0,0-0.5,1,0.2,1s3.9,0,3.9,0s1.2,0.2,0.6-1.2c-0.6-1.4-1.7-4-1.7-4s-0.2-0.8-0.6-0.6S285.5,24.2,285.2,24.7z"></path>		</g>	</g></g></svg>